<svg width="183" height="41" viewBox="0 0 183 41" fill="none" xmlns="http://www.w3.org/2000/svg">
<path fill-rule="evenodd" clip-rule="evenodd" d="M35.4524 5.22546H47.6177L35.4524 34.3192V5.22546ZM68.3267 5.22546H56.1772L68.3267 34.3192V5.22546ZM51.8976 15.9484L59.6406 34.3192H54.5605L52.2463 28.4704H46.5797L51.8976 15.9484ZM89.6077 27.8405L88.1732 23.7272H82.2847L80.9295 27.7929C80.874 27.9435 80.8027 27.9911 80.6521 27.9911H78.1874C78.0447 27.9911 77.9892 27.9197 78.013 27.7454L83.0931 13.2976C83.1962 13.0519 83.2675 12.7983 83.315 11.9661C83.315 11.8631 83.3705 11.7918 83.4656 11.7918H86.8893C87.0161 11.7918 87.0399 11.8155 87.0637 11.9423L92.762 27.7691C92.7858 27.9197 92.762 27.9911 92.6114 27.9911H89.8534C89.7266 27.9911 89.6553 27.9435 89.6077 27.8405ZM83.3774 20.113C83.2718 20.4305 83.1685 20.7411 83.0693 21.0406H87.3886C87.2342 20.5585 87.0245 19.9203 86.793 19.2158L86.7926 19.2148C86.2401 17.5333 85.5633 15.4739 85.2171 14.2565H85.1933C84.8498 15.6856 84.0655 18.0439 83.3774 20.1128L83.3774 20.113ZM100.088 28.2367C101.57 28.2367 103.147 27.9673 104.748 27.2777C104.875 27.2302 104.898 27.1747 104.898 27.0558C104.851 26.612 104.795 25.9701 104.795 25.4787V10.5792C104.795 10.4841 104.795 10.4365 104.676 10.4365H101.99C101.887 10.4365 101.839 10.4841 101.839 10.6109V15.6593C101.419 15.6117 101.126 15.5879 100.777 15.5879C96.442 15.5879 93.7791 18.449 93.7791 22.0233C93.7791 26.1682 96.5133 28.2367 100.088 28.2367ZM101.839 25.4787C101.395 25.6214 100.904 25.6768 100.405 25.6768C98.4392 25.6768 96.8303 24.5673 96.8303 21.8727C96.8303 19.4872 98.4867 18.0765 100.682 18.0765C101.126 18.0765 101.514 18.124 101.839 18.2508V25.4787ZM107.478 21.9282C107.478 18.4252 109.768 15.588 113.469 15.588C117.265 15.588 119.334 18.4728 119.334 21.849C119.334 25.6769 116.893 28.2368 113.414 28.2368C109.3 28.2368 107.478 25.0587 107.478 21.9282ZM116.299 21.9282C116.299 19.8756 115.411 18.0765 113.319 18.0765C111.662 18.0765 110.481 19.5348 110.481 21.8727C110.481 24.1473 111.591 25.7244 113.469 25.7244C114.991 25.7244 116.299 24.4643 116.299 21.9282ZM122.112 10.4365C122.009 10.4365 121.937 10.4841 121.937 10.6109V27.4759C121.937 27.5472 122.009 27.674 122.112 27.6978C123.293 28.0624 124.529 28.2367 125.805 28.2367C129.458 28.2367 133.009 25.9701 133.009 21.4051C133.009 18.1003 130.742 15.5879 127.192 15.5879C126.375 15.5879 125.615 15.7148 124.949 15.9367L124.917 10.6346C124.917 10.4603 124.87 10.4365 124.695 10.4365H122.112ZM129.974 21.7063C129.974 24.4405 128.103 25.7244 126.082 25.7244C125.662 25.7244 125.29 25.7006 124.949 25.5976V18.4014C125.337 18.2508 125.805 18.124 126.669 18.124C128.618 18.124 129.974 19.3604 129.974 21.7063ZM145.572 22.4909C145.231 22.5702 144.24 22.5939 143.035 22.5939H138.027C138.098 24.3137 139.239 25.7007 141.752 25.7007C142.861 25.7007 143.876 25.5025 144.811 25.1063C144.882 25.0587 144.953 25.0825 144.953 25.2014V27.254C144.953 27.3967 144.906 27.4759 144.811 27.5235C143.876 27.9673 142.79 28.2368 141.11 28.2368C136.624 28.2368 135.023 25.0825 135.023 22.0471C135.023 18.6234 137.091 15.588 140.816 15.588C144.462 15.588 145.873 18.449 145.873 20.7949C145.873 21.4844 145.841 22.0471 145.77 22.3166C145.746 22.4196 145.698 22.4671 145.572 22.4909ZM140.69 17.9576C138.986 17.9576 138.225 19.2653 138.027 20.47H141.704H141.704C142.639 20.47 142.956 20.47 143.059 20.4462V20.2481C143.059 19.5348 142.568 17.9576 140.69 17.9576Z" fill="#171412"/>
</svg>
