<svg width="184" height="41" viewBox="0 0 184 41" fill="none" xmlns="http://www.w3.org/2000/svg">
<path d="M94.7615 11.917C94.7615 13.1152 93.7963 14.0804 92.5981 14.0804C91.3999 14.0804 90.4347 13.1152 90.4347 11.917C90.4347 10.7188 91.3666 9.75356 92.5981 9.75356C93.8296 9.78684 94.7615 10.7521 94.7615 11.917ZM85.8416 16.2771C85.8416 16.4768 85.8416 16.8096 85.8416 16.8096C85.8416 16.8096 84.8098 15.4783 82.6131 15.4783C78.9852 15.4783 76.1562 18.2408 76.1562 22.0684C76.1562 25.8627 78.952 28.6585 82.6131 28.6585C84.8431 28.6585 85.8416 27.2938 85.8416 27.2938V27.8597C85.8416 28.1259 86.0413 28.3256 86.3076 28.3256H89.0035V15.8111C89.0035 15.8111 86.5406 15.8111 86.3076 15.8111C86.0413 15.8111 85.8416 16.0441 85.8416 16.2771ZM85.8416 24.2983C85.3424 25.0306 84.3439 25.663 83.1457 25.663C81.0155 25.663 79.3846 24.3316 79.3846 22.0684C79.3846 19.8051 81.0155 18.4738 83.1457 18.4738C84.3106 18.4738 85.3756 19.1394 85.8416 19.8384V24.2983ZM91.0005 15.8111H94.1957V28.3256H91.0005V15.8111ZM138.729 15.4783C136.532 15.4783 135.5 16.8096 135.5 16.8096V9.78684H132.305V28.3256C132.305 28.3256 134.768 28.3256 135.001 28.3256C135.267 28.3256 135.467 28.0926 135.467 27.8597V27.2938C135.467 27.2938 136.499 28.6585 138.695 28.6585C142.323 28.6585 145.152 25.8627 145.152 22.0684C145.152 18.2741 142.323 15.4783 138.729 15.4783ZM138.196 25.6297C136.965 25.6297 136 24.9973 135.5 24.2651V19.8051C136 19.1394 137.065 18.4405 138.196 18.4405C140.326 18.4405 141.957 19.7718 141.957 22.0351C141.957 24.2984 140.326 25.6297 138.196 25.6297ZM130.641 20.9035V28.3589H127.446V21.2696C127.446 19.206 126.78 18.3739 124.983 18.3739C124.018 18.3739 123.019 18.8732 122.387 19.6054V28.3256H119.191V15.8111H121.721C121.987 15.8111 122.187 16.0441 122.187 16.2771V16.8096C123.119 15.8444 124.35 15.4783 125.582 15.4783C126.98 15.4783 128.145 15.8777 129.077 16.6765C130.208 17.6084 130.641 18.8066 130.641 20.9035ZM111.436 15.4783C109.24 15.4783 108.208 16.8096 108.208 16.8096V9.78684H105.013V28.3256C105.013 28.3256 107.476 28.3256 107.709 28.3256C107.975 28.3256 108.175 28.0926 108.175 27.8597V27.2938C108.175 27.2938 109.206 28.6585 111.403 28.6585C115.031 28.6585 117.86 25.8627 117.86 22.0684C117.893 18.2741 115.064 15.4783 111.436 15.4783ZM110.904 25.6297C109.672 25.6297 108.707 24.9973 108.208 24.2651V19.8051C108.707 19.1394 109.772 18.4405 110.904 18.4405C113.034 18.4405 114.665 19.7718 114.665 22.0351C114.665 24.2984 113.034 25.6297 110.904 25.6297ZM102.25 15.4783C103.215 15.4783 103.715 15.6447 103.715 15.6447V18.6069C103.715 18.6069 101.052 17.7083 99.3879 19.6054V28.3589H96.1927V15.8111C96.1927 15.8111 98.6557 15.8111 98.8886 15.8111C99.1549 15.8111 99.3546 16.0441 99.3546 16.2771V16.8096C99.9537 16.1107 101.252 15.4783 102.25 15.4783ZM69.0668 27.194C68.9004 26.7946 68.734 26.3619 68.5676 25.9958C68.3013 25.3967 68.0351 24.8309 67.8021 24.2983L67.7688 24.2651C65.4722 19.2726 63.0093 14.2135 60.4132 9.22102L60.3133 9.02132C60.0471 8.52208 59.7808 7.98954 59.5145 7.45701C59.1817 6.85791 58.8489 6.22553 58.3163 5.62643C57.2513 4.2951 55.7202 3.56287 54.0894 3.56287C52.4252 3.56287 50.9274 4.2951 49.8291 5.55986C49.3299 6.15896 48.9637 6.79134 48.6309 7.39044C48.3646 7.92298 48.0984 8.45551 47.8321 8.95476L47.7323 9.15446C45.1694 14.1469 42.6732 19.206 40.3767 24.1985L40.3434 24.2651C40.1104 24.7976 39.8441 25.3634 39.5779 25.9625C39.4114 26.3286 39.245 26.728 39.0786 27.1607C38.6459 28.3922 38.5128 29.5571 38.6792 30.7553C39.0453 33.2516 40.7095 35.3484 43.006 36.2803C43.8714 36.6465 44.77 36.8129 45.702 36.8129C45.9682 36.8129 46.3011 36.7796 46.5673 36.7463C47.6657 36.6132 48.7973 36.2471 49.8957 35.6147C51.2603 34.8492 52.5583 33.7508 54.0228 32.1532C55.4873 33.7508 56.8186 34.8492 58.1499 35.6147C59.2483 36.2471 60.3799 36.6132 61.4782 36.7463C61.7445 36.7796 62.0773 36.8129 62.3436 36.8129C63.2755 36.8129 64.2075 36.6465 65.0396 36.2803C67.3694 35.3484 69.0003 33.2183 69.3664 30.7553C69.6326 29.5904 69.4995 28.4255 69.0668 27.194ZM54.0561 28.9247C52.2588 26.6615 51.0939 24.5313 50.6945 22.734C50.528 21.9685 50.4948 21.3029 50.5946 20.7038C50.6612 20.1712 50.8609 19.7053 51.1271 19.3059C51.7595 18.4072 52.8246 17.8414 54.0561 17.8414C55.2876 17.8414 56.3859 18.3739 56.985 19.3059C57.2513 19.7053 57.451 20.1712 57.5175 20.7038C57.6174 21.3029 57.5841 22.0018 57.4177 22.734C57.0183 24.498 55.8534 26.6282 54.0561 28.9247ZM67.3361 30.489C67.1031 32.2198 65.9382 33.7175 64.3073 34.3832C63.5085 34.716 62.6432 34.8159 61.7778 34.716C60.9457 34.6162 60.1136 34.3499 59.2483 33.8507C58.0501 33.185 56.8519 32.1532 55.454 30.6222C57.6507 27.9262 58.982 25.4633 59.4813 23.2666C59.7142 22.2348 59.7475 21.3029 59.6477 20.4375C59.5145 19.6054 59.215 18.8399 58.749 18.1742C57.7172 16.6765 55.9865 15.8111 54.0561 15.8111C52.1256 15.8111 50.3949 16.7098 49.3631 18.1742C48.8972 18.8399 48.5976 19.6054 48.4645 20.4375C48.3314 21.3029 48.3646 22.2681 48.6309 23.2666C49.1302 25.4633 50.4948 27.9595 52.6582 30.6555C51.2936 32.1865 50.0621 33.2183 48.8639 33.8839C47.9985 34.3832 47.1664 34.6495 46.3344 34.7493C45.4357 34.8491 44.5703 34.716 43.8048 34.4165C42.1739 33.7508 41.009 32.2531 40.776 30.5223C40.6762 29.6902 40.7428 28.8582 41.0756 27.9262C41.1754 27.5934 41.3419 27.2606 41.5083 26.8612C41.7413 26.3286 42.0075 25.7628 42.2738 25.197L42.3071 25.1304C44.6036 20.1712 47.0666 15.1122 49.6294 10.1862L49.7293 9.98654C49.9955 9.48729 50.2618 8.95476 50.528 8.45551C50.7943 7.92298 51.0939 7.42373 51.46 6.99104C52.1589 6.19225 53.0909 5.75956 54.1226 5.75956C55.1544 5.75956 56.0864 6.19225 56.7853 6.99104C57.1514 7.42373 57.451 7.92298 57.7172 8.45551C57.9835 8.95476 58.2498 9.48729 58.516 9.98654L58.6159 10.1862C61.1454 15.1454 63.6084 20.2045 65.9049 25.1637V25.197C66.1712 25.7295 66.4042 26.3286 66.6704 26.8612C66.8369 27.2606 67.0033 27.5934 67.1031 27.9262C67.3694 28.7916 67.4692 29.6237 67.3361 30.489Z" fill="#171412"/>
</svg>
