<svg width="183" height="41" viewBox="0 0 183 41" fill="none" xmlns="http://www.w3.org/2000/svg">
<path fill-rule="evenodd" clip-rule="evenodd" d="M31.1526 16.8849L38.988 11.8864L46.8235 16.8579L38.988 21.8563L46.783 26.8818L54.6184 21.8834L46.783 16.8849L54.6184 11.8864L46.783 6.88794L38.988 11.8864L31.1526 6.88794L23.3171 11.8864L31.1526 16.8579L23.3171 21.8563L31.1526 26.8818L38.988 21.8834L31.1526 16.8849ZM38.9475 23.491L31.1121 28.4895L38.9475 33.4879L46.783 28.4895L38.9475 23.491ZM67.1011 11.8863H60.7652V28.4759H67.2227C71.3566 28.4759 74.4772 26.0577 74.4772 20.6809V19.5597C74.4772 14.2235 71.1404 11.8863 67.1011 11.8863ZM64.3047 25.4498V14.8989H66.8985C69.2356 14.8989 70.8567 16.3985 70.8567 19.7353V20.6134C70.8567 23.9502 69.3166 25.4498 67.02 25.4498H64.3047ZM79.192 15.061H76.4091V28.5164H79.908V22.3426C79.908 19.5056 80.6105 18.5059 83.488 18.5059H84.947V14.9259H84.0689C81.5697 14.9259 80.1917 16.0607 79.6513 18.1817L79.192 15.061ZM85.6495 21.6806V22.0589C85.6495 26.49 88.1082 28.8136 92.4447 28.8541C96.5246 28.8541 99.24 26.4765 99.24 22.0589V21.6806C99.24 17.182 96.4435 14.7233 92.4447 14.7233C88.527 14.7233 85.6495 17.182 85.6495 21.6806ZM95.66 21.6806V22.0184C95.66 24.4366 94.4036 25.774 92.4042 25.8145C90.4048 25.8145 89.1484 24.4366 89.1484 22.0184V21.6806C89.1484 19.0598 90.4453 17.6819 92.4042 17.6819C94.4036 17.6819 95.66 19.1814 95.66 21.6806ZM103.995 15.061H101.077L101.037 33.1636H104.455V26.3684C105.171 27.9085 106.63 28.8676 108.751 28.8676C111.925 28.8676 114.425 26.5305 114.425 22.1129V21.7347C114.425 17.182 112.168 14.7233 108.751 14.7233C106.535 14.7233 105.035 15.8986 104.333 17.6008L103.995 15.061ZM110.872 21.7212V22.0184C110.872 24.5311 109.629 25.8145 107.616 25.855C105.657 25.855 104.401 24.3555 104.401 21.9778V21.7212C104.401 19.2219 105.697 17.7224 107.656 17.7224C109.494 17.7224 110.872 19.0463 110.872 21.7212ZM119.301 28.4894L119.599 26.0307C120.301 27.7734 121.76 28.8136 124.016 28.8676C127.434 28.8676 129.69 26.3144 129.69 21.8563V21.4375C129.69 16.9794 127.312 14.7638 124.097 14.7233C121.976 14.7233 120.477 15.6825 119.72 17.4387V10.5624H116.302V28.4894H119.301ZM126.097 21.5185V21.8563C126.097 24.5311 124.894 25.8145 122.841 25.8145C120.923 25.8145 119.626 24.3555 119.626 21.8563V21.5591C119.626 19.2219 120.963 17.6819 122.881 17.6819C124.759 17.6819 126.097 19.0598 126.097 21.5185ZM131.19 21.6806V22.0589C131.19 26.49 133.648 28.8136 137.985 28.8541C142.024 28.8541 144.78 26.4765 144.78 22.0589V21.6806C144.78 17.182 141.984 14.7233 137.985 14.7233C134.067 14.7233 131.19 17.182 131.19 21.6806ZM141.227 21.6806V22.0184C141.227 24.4366 139.984 25.774 137.971 25.8145C135.972 25.8145 134.716 24.4366 134.716 22.0184V21.6806C134.716 19.0598 136.013 17.6819 137.971 17.6819C139.971 17.6819 141.227 19.1814 141.227 21.6806ZM144.645 15.061L149.36 21.5185L144.24 28.4894H148.374L151.373 24.0313L154.453 28.4894H158.411L153.372 21.478L158.154 15.061H154.156L151.4 19.1003L148.684 15.061H144.645Z" fill="#171412"/>
</svg>
