<svg width="183" height="41" viewBox="0 0 183 41" fill="none" xmlns="http://www.w3.org/2000/svg">
<path d="M51.4106 5.88794V27.9421L54.2323 27.953V17.451H61.015V14.6724H54.2214V8.65564H63.0662V5.88794H51.4106ZM68.1234 10.3732C68.6127 10.3732 69.082 10.1772 69.4279 9.82845C69.7739 9.47969 69.9683 9.00666 69.9683 8.51343C69.9683 8.0202 69.7739 7.54717 69.4279 7.19841C69.082 6.84964 68.6127 6.65371 68.1234 6.65371C67.6341 6.65371 67.1648 6.84964 66.8188 7.19841C66.4729 7.54717 66.2785 8.0202 66.2785 8.51343C66.2785 9.00666 66.4729 9.47969 66.8188 9.82845C67.1648 10.1772 67.6341 10.3732 68.1234 10.3732ZM66.7017 13.1409V27.953H69.5234V13.1409H66.7017Z" fill="#171412"/>
<path fill-rule="evenodd" clip-rule="evenodd" d="M79.9525 12.7142C76.2193 12.7142 73.6147 15.8976 73.6147 19.6827C73.6147 23.4678 76.2193 26.6512 79.9525 26.6512C81.6672 26.6512 83.078 25.9948 84.109 24.9009V26.87C84.1162 27.4583 84.0076 28.0423 83.7895 28.5881C83.5714 29.1339 83.2482 29.6307 82.8384 30.0498C82.4287 30.4689 81.9407 30.802 81.4025 31.0298C80.8643 31.2577 80.2866 31.3757 79.7029 31.3771C78.8021 31.3771 77.9122 31.027 77.2068 30.5238L75.796 32.9852C76.8869 33.696 78.1479 34.0969 79.446 34.1454C80.7441 34.194 82.0311 33.8885 83.1713 33.2612C84.3115 32.6339 85.2626 31.708 85.9242 30.5812C86.5859 29.4544 86.9336 28.1684 86.9306 26.859V13.1518H84.109V14.4755C83.078 13.3815 81.6672 12.7251 79.9525 12.7251V12.7142ZM76.4255 19.6827C76.4255 17.3307 78.2053 15.4819 80.2672 15.4819C82.3292 15.4819 84.0981 17.3416 84.0981 19.6827C84.0981 22.0347 82.3183 23.8725 80.2672 23.8725C78.2053 23.8725 76.4255 22.0347 76.4255 19.6827Z" fill="#171412"/>
<path d="M97.0668 15.482C96.2598 15.4963 95.4908 15.8304 94.9263 16.4118C94.3617 16.9932 94.0468 17.7752 94.0498 18.5888V27.9531H91.2282V13.1409H94.0498V14.4974C94.4719 13.9334 95.0203 13.4779 95.6502 13.1681C96.2801 12.8582 96.9737 12.7027 97.6745 12.7143C99.6496 12.7143 101.169 13.6988 102.037 15.2085C102.522 14.4517 103.184 13.8277 103.967 13.3925C104.749 12.9572 105.626 12.7242 106.519 12.7143C109.721 12.7143 111.728 15.3179 111.728 18.5451V27.9531H108.928V18.5779C108.931 17.7643 108.617 16.9822 108.052 16.4008C107.487 15.8194 106.718 15.4854 105.911 15.471C105.105 15.4854 104.336 15.8194 103.771 16.4008C103.206 16.9822 102.892 17.7643 102.895 18.5779V27.9421H100.073V18.5779C100.076 17.7661 99.7626 16.9857 99.2003 16.4046C98.638 15.8235 97.8719 15.4882 97.0668 15.471V15.482Z" fill="#171412"/>
<path fill-rule="evenodd" clip-rule="evenodd" d="M126.737 14.8256C126.097 14.1521 125.326 13.6175 124.474 13.2544C123.621 12.8914 122.703 12.7076 121.778 12.7142C117.589 12.7142 114.615 16.2805 114.615 20.547C114.615 24.8134 117.589 28.3797 121.778 28.3797C122.703 28.3844 123.62 28.1997 124.472 27.8368C125.325 27.4739 126.095 26.9403 126.737 26.2683V27.953H129.548V13.1409H126.727V14.8256H126.737ZM117.426 20.547C117.426 17.7246 119.575 15.482 122.082 15.482C124.578 15.482 126.737 17.7246 126.737 20.547C126.737 23.3694 124.589 25.601 122.082 25.601C119.586 25.601 117.426 23.3694 117.426 20.547Z" fill="#171412"/>
</svg>
