<svg width="183" height="41" viewBox="0 0 183 41" fill="none" xmlns="http://www.w3.org/2000/svg">
<path d="M34.6213 1.90039H58.8462V14.0128H46.7338L34.6213 1.90039ZM34.6213 14.0128H46.7338L58.8462 26.1252H34.6213V14.0128ZM34.6213 26.1252H46.7338V38.2377L34.6213 26.1252Z" fill="#171412"/>
<path d="M72.5146 11.4559H82.3068V14.5676H76.2209V18.8917H82.3068V21.9347H76.2209V27.4713H72.5146V11.4559ZM84.3201 16.4434H87.8207V18.7543C88.0036 17.9602 88.3777 17.3506 88.9418 16.9239C89.5204 16.4811 90.1626 16.2605 90.8637 16.2605C91.23 16.2605 91.5353 16.2916 91.7786 16.352V19.6011C91.4295 19.5589 91.0781 19.5362 90.7262 19.5323C89.7653 19.5323 89.0416 19.8443 88.5528 20.47C88.0657 21.0801 87.8207 21.9951 87.8207 23.2159V27.4713H84.3217V16.4434H84.3201ZM97.3047 27.7689C96.2374 27.7689 95.3064 27.5168 94.5134 27.0136C93.7353 26.5104 93.1169 25.7961 92.729 24.9543C92.3172 24.0704 92.11 23.0701 92.11 21.9574C92.11 20.859 92.325 19.8671 92.7517 18.9832C93.1518 18.1292 93.7869 17.4071 94.5821 16.9012C95.3895 16.398 96.3128 16.1458 97.3507 16.1458C98.1282 16.1458 98.8232 16.3143 99.4327 16.6496C100.042 16.9859 100.5 17.4437 100.805 18.0222V16.4434H104.283V27.4713H100.805V25.9152C100.5 26.4644 100.027 26.9138 99.3867 27.2652C98.7461 27.6049 98.0301 27.7778 97.3047 27.7689ZM98.3117 24.8629C99.1501 24.8629 99.7985 24.5886 100.256 24.0394C100.714 23.4902 100.943 22.7958 100.943 21.9574C100.943 21.1339 100.714 20.4473 100.256 19.8981C99.7985 19.3489 99.1501 19.0746 98.3117 19.0746C97.5175 19.0746 96.878 19.3412 96.3898 19.8754C95.9171 20.4096 95.6805 21.1028 95.6805 21.9574C95.6805 22.8119 95.9171 23.5129 96.3898 24.0621C96.878 24.5963 97.5186 24.8629 98.3117 24.8629ZM106.731 16.4434H110.232V18.045C110.477 17.4797 110.872 17.022 111.421 16.6723C111.986 16.3226 112.642 16.1458 113.389 16.1458C115.128 16.1458 116.28 16.8241 116.844 18.1824C117.154 17.5667 117.639 17.0574 118.239 16.7183C118.881 16.332 119.618 16.1342 120.367 16.1458C122.975 16.1458 124.279 17.6399 124.279 20.6301V27.4713H120.756V21.2708C120.756 20.5243 120.619 19.9751 120.344 19.6238C120.069 19.2735 119.658 19.0973 119.108 19.0973C118.514 19.0973 118.056 19.3035 117.736 19.7152C117.415 20.112 117.255 20.8053 117.255 21.7972V27.4713H113.732V21.248C113.732 20.501 113.595 19.959 113.32 19.6238C113.062 19.2735 112.657 19.0973 112.109 19.0973C111.498 19.0973 111.033 19.3035 110.712 19.7152C110.392 20.112 110.232 20.8053 110.232 21.7972V27.4713H106.732V16.4434H106.731ZM137.43 21.3855C137.43 21.8576 137.399 22.3691 137.337 22.9183H129.193C129.224 23.6354 129.467 24.1835 129.925 24.5658C130.383 24.9465 131.002 25.1377 131.778 25.1377C132.862 25.1377 133.548 24.8091 133.838 24.1535H137.27C137.101 25.2369 136.506 26.1131 135.485 26.7847C134.478 27.4403 133.242 27.7689 131.778 27.7689C129.888 27.7689 128.4 27.2574 127.317 26.2355C126.249 25.2131 125.715 23.7878 125.715 21.9574C125.715 20.7676 125.959 19.7379 126.447 18.8684C126.919 18.0001 127.646 17.2974 128.529 16.8552C129.43 16.383 130.474 16.1458 131.665 16.1458C132.793 16.1458 133.792 16.3669 134.661 16.8097C135.546 17.2525 136.225 17.8698 136.697 18.6628C137.186 19.457 137.43 20.3641 137.43 21.3855ZM133.973 20.7449C133.958 20.0128 133.753 19.4553 133.355 19.0746C132.96 18.6939 132.387 18.5027 131.64 18.5027C130.893 18.5027 130.298 18.7083 129.855 19.1206C129.429 19.5174 129.208 20.0582 129.191 20.7449H133.973ZM138.973 16.4434H142.474V18.7543C142.657 17.9602 143.031 17.3506 143.595 16.9239C144.142 16.4927 144.82 16.2589 145.517 16.2605C145.882 16.2605 146.188 16.2916 146.432 16.352V19.6011C146.082 19.5589 145.731 19.5362 145.379 19.5323C144.418 19.5323 143.695 19.8443 143.206 20.47C142.717 21.0801 142.474 21.9951 142.474 23.2159V27.4713H138.973V16.4434Z" fill="#171412"/>
</svg>
