<svg width="184" height="41" viewBox="0 0 184 41" fill="none" xmlns="http://www.w3.org/2000/svg">
<path fill-rule="evenodd" clip-rule="evenodd" d="M56.649 15.2994V18.56L64.442 18.5566C64.203 20.355 63.5966 21.6717 62.6748 22.5934C61.5383 23.73 59.7642 24.9809 56.649 24.9809C51.8464 24.9809 48.0902 21.1104 48.0902 16.3077C48.0902 11.5051 51.8464 7.63457 56.649 7.63457C59.2409 7.63457 61.1329 8.65331 62.5293 9.96312L64.8301 7.66229C62.8827 5.80152 60.2908 4.3739 56.6525 4.3739C50.0757 4.3739 44.5454 9.73095 44.5454 16.3077C44.5454 22.8845 50.0757 28.2415 56.6525 28.2415C60.2008 28.2415 62.8793 27.0773 64.9757 24.8943C67.131 22.739 67.7997 19.7139 67.7997 17.2676C67.7997 16.5399 67.7443 15.8677 67.6369 15.2994H56.649ZM122.386 27.774V5.25081H119.094V27.774H122.386ZM76.8194 28.2451C81.0676 28.2451 84.5292 24.9845 84.5292 20.5595C84.5292 16.1034 81.0676 12.8739 76.8194 12.8739C72.5711 12.8739 69.1095 16.1034 69.1095 20.5595C69.1095 24.9845 72.5711 28.2451 76.8194 28.2451ZM76.8194 15.9024C79.1479 15.9024 81.1542 17.7944 81.1542 20.5595C81.1542 23.2935 79.1479 25.2166 76.8194 25.2166C74.4908 25.2166 72.4845 23.297 72.4845 20.5595C72.4845 17.7944 74.4908 15.9024 76.8194 15.9024ZM93.4521 28.2451C97.7003 28.2451 101.162 24.9845 101.162 20.5595C101.162 16.1034 97.7003 12.8739 93.4521 12.8739C89.2038 12.8739 85.7422 16.1069 85.7422 20.5595C85.7422 24.9845 89.2038 28.2451 93.4521 28.2451ZM93.4521 15.9024C95.7806 15.9024 97.7869 17.7944 97.7869 20.5595C97.7869 23.2935 95.7806 25.2166 93.4521 25.2166C91.1235 25.2166 89.1172 23.297 89.1172 20.5595C89.1172 17.7944 91.1235 15.9024 93.4521 15.9024ZM117.102 13.3417V27.1363C117.102 32.8121 113.754 35.1303 109.797 35.1303C106.072 35.1303 103.83 32.6389 102.985 30.6014L105.923 29.3782C106.446 30.6291 107.729 32.1053 109.794 32.1053C112.327 32.1053 113.896 30.5425 113.896 27.6006V26.4953H113.779C113.023 27.4274 111.568 28.2417 109.731 28.2417C105.889 28.2417 102.368 24.8944 102.368 20.5872C102.368 16.2489 105.889 12.8739 109.731 12.8739C111.564 12.8739 113.02 13.6882 113.779 14.5926H113.896V13.3417H117.102ZM114.136 20.5872C114.136 17.881 112.33 15.9024 110.033 15.9024C107.704 15.9024 105.753 17.881 105.753 20.5872C105.753 23.2658 107.704 25.2166 110.033 25.2166C112.33 25.2166 114.136 23.2658 114.136 20.5872ZM135.214 23.0891L137.833 24.8355C136.988 26.0864 134.95 28.2417 131.43 28.2417C127.064 28.2417 123.803 24.8667 123.803 20.5561C123.803 15.9856 127.092 12.8705 131.052 12.8705C135.04 12.8705 136.991 16.0445 137.629 17.7597L137.979 18.6329L127.705 22.8881C128.491 24.4301 129.715 25.2166 131.43 25.2166C133.149 25.2166 134.341 24.3712 135.214 23.0891ZM127.15 20.3239L134.018 17.4721C133.641 16.5123 132.504 15.8435 131.166 15.8435C129.451 15.8435 127.064 17.3578 127.15 20.3239Z" fill="#171412"/>
</svg>
