<svg width="16" height="16" viewBox="0 0 16 16" fill="none" xmlns="http://www.w3.org/2000/svg">
<g clip-path="url(#clip0_28_4273)">
<path fill-rule="evenodd" clip-rule="evenodd" d="M15.6698 0.406024C16.0769 0.854816 16.0431 1.54866 15.5943 1.95578C13.4232 3.92533 11.9026 5.59545 10.6376 7.56997C9.36819 9.55126 8.32619 11.8857 7.16609 15.2182C7.04093 15.5777 6.73838 15.8466 6.36669 15.9288C5.995 16.0108 5.60729 15.8945 5.34229 15.6212L0.35528 10.4784C-0.0665385 10.0434 -0.0558525 9.34878 0.379149 8.92696C0.81415 8.50514 1.50874 8.51583 1.93055 8.95082L5.69431 12.8322C6.66594 10.2421 7.62722 8.20107 8.78995 6.38623C10.1953 4.19266 11.865 2.37618 14.12 0.330561C14.5688 -0.0765544 15.2626 -0.0427687 15.6698 0.406024Z" fill="#66C61C"/>
</g>
<defs>
<clipPath id="clip0_28_4273">
<rect width="16" height="16" fill="white"/>
</clipPath>
</defs>
</svg>
