<svg width="24" height="24" viewBox="0 0 24 24" fill="none" xmlns="http://www.w3.org/2000/svg">
<path fill-rule="evenodd" clip-rule="evenodd" d="M12 0.857117C9.65445 0.857117 7.75839 0.92784 5.79671 1.06271C3.7174 1.20567 2.06312 2.86201 1.93235 4.94541C1.7894 7.22325 1.71429 9.58283 1.71429 12C1.71429 14.4171 1.7894 16.7767 1.93237 19.0546C2.06312 21.138 3.7174 22.7943 5.79671 22.9373C7.75839 23.072 9.65445 23.1428 12 23.1428C14.3456 23.1428 16.2416 23.072 18.2033 22.9373C20.2826 22.7943 21.9369 21.138 22.0677 19.0546C22.2106 16.7767 22.2857 14.4171 22.2857 12C22.2857 11.021 22.2734 10.0515 22.2492 9.09304C22.2281 8.25419 21.9559 7.43442 21.4543 6.75088C19.9051 4.64037 18.649 3.30349 16.5987 1.72101C15.9046 1.18528 15.0586 0.898884 14.1953 0.88002C13.4998 0.864819 12.7741 0.857117 12 0.857117ZM10.4725 5.90788C10.8471 6.3659 10.7796 7.04092 10.3216 7.41558C9.66282 7.95443 9.23692 8.38269 8.89041 8.87039C8.54084 9.36242 8.23864 9.96208 7.88346 10.8821C7.7554 11.2139 7.47114 11.4604 7.12467 11.5403C6.77819 11.6202 6.41466 11.523 6.15429 11.2809L4.57758 9.81464C4.14426 9.41166 4.11966 8.73371 4.52262 8.30039C4.92558 7.86707 5.60353 7.84247 6.03685 8.24543L6.50922 8.6847C6.70348 8.30447 6.91055 7.95726 7.14356 7.6293C7.64133 6.92865 8.22409 6.36285 8.96476 5.75697C9.42277 5.38232 10.0978 5.44988 10.4725 5.90788ZM10.3216 14.3329C10.7796 13.9583 10.8471 13.2833 10.4725 12.8252C10.0978 12.3672 9.42277 12.2997 8.96476 12.6743C8.22409 13.2802 7.64133 13.846 7.14356 14.5466C6.91055 14.8746 6.70348 15.2218 6.50922 15.6021L6.03685 15.1628C5.60353 14.7598 4.92558 14.7844 4.52262 15.2178C4.11966 15.6511 4.14426 16.329 4.57758 16.732L6.15429 18.1983C6.41466 18.4404 6.77819 18.5376 7.12467 18.4577C7.47114 18.3778 7.7554 18.1313 7.88346 17.7996C8.23864 16.8794 8.54084 16.2798 8.89041 15.7878C9.23692 15.3 9.66282 14.8718 10.3216 14.3329ZM12.7689 9.39993C12.7689 8.8082 13.2486 8.32851 13.8403 8.32851H18.126C18.7178 8.32851 19.1974 8.8082 19.1974 9.39993C19.1974 9.99167 18.7178 10.4714 18.126 10.4714H13.8403C13.2486 10.4714 12.7689 9.99167 12.7689 9.39993ZM13.8403 15.6211C13.2486 15.6211 12.7689 16.1008 12.7689 16.6926C12.7689 17.2843 13.2486 17.7639 13.8403 17.7639H18.126C18.7178 17.7639 19.1974 17.2843 19.1974 16.6926C19.1974 16.1008 18.7178 15.6211 18.126 15.6211H13.8403Z" fill="#66C61C"/>
</svg>
