<svg width="32" height="32" viewBox="0 0 32 32" fill="none" xmlns="http://www.w3.org/2000/svg">
<g clip-path="url(#clip0_42_452)">
<path fill-rule="evenodd" clip-rule="evenodd" d="M4.8759 4.87602C7.51772 2.23417 11.3284 0.91687 15.9996 0.91687C20.6708 0.91687 24.4815 2.23417 27.1233 4.87602C29.7652 7.51785 31.0824 11.3286 31.0824 15.9997C31.0824 20.6709 29.7652 24.4816 27.1233 27.1234C24.4815 29.7653 20.6708 31.0825 15.9996 31.0825C12.7415 31.0825 9.90216 30.4432 7.58026 29.1541L2.647 30.7984C2.23634 30.9353 1.78358 30.8286 1.47749 30.5225C1.17139 30.2162 1.06451 29.7637 1.2014 29.3529L2.84572 24.4199C1.55627 22.0979 0.916748 19.2582 0.916748 15.9997C0.916748 11.3286 2.23405 7.51785 4.8759 4.87602ZM10.1028 8.45677C10.7374 7.60907 11.9559 7.51858 12.779 8.18473C13.5635 8.81965 14.3159 9.52045 15.0534 10.2101C15.7052 10.8196 15.7479 11.8471 15.1618 12.5201C14.8697 12.8556 14.5867 13.18 14.0922 13.7074C15.2697 15.689 16.4929 16.9271 18.5112 18.1264C19.0353 17.6351 19.3583 17.3532 19.6913 17.0633C20.3651 16.4766 21.3951 16.5194 22.0105 17.1671C22.7231 17.9171 23.4554 18.688 24.095 19.5002C24.7277 20.3036 24.6141 21.473 23.7985 22.09C23.674 22.1842 23.5505 22.2723 23.4132 22.3701C23.1402 22.5646 22.8129 22.7977 22.3161 23.195C20.5516 24.6055 17.9967 24.6055 16.2385 23.1872C14.9405 22.1401 13.6309 21.0423 12.4036 19.815C11.1764 18.5878 10.0786 17.2781 9.03153 15.9802C7.61317 14.222 7.61315 11.6671 9.02374 9.9026C9.42019 9.40667 9.65525 9.07773 9.85148 8.80315C9.93937 8.68015 10.0195 8.56806 10.1028 8.45677Z" fill="#66C61C"/>
</g>
<defs>
<clipPath id="clip0_42_452">
<rect width="32" height="32" fill="white"/>
</clipPath>
</defs>
</svg>
