<svg width="24" height="24" viewBox="0 0 24 24" fill="none" xmlns="http://www.w3.org/2000/svg">
<g clip-path="url(#clip0_42_490)">
<path fill-rule="evenodd" clip-rule="evenodd" d="M12.0003 0.722168C10.1259 0.722168 8.29632 0.889811 6.54151 1.08392C3.67447 1.40105 1.36918 3.70456 1.06444 6.57676C0.87925 8.32221 0.722168 10.1392 0.722168 12.0003C0.722168 13.8614 0.87925 15.6784 1.06444 17.4239C1.36918 20.2962 3.67447 22.5996 6.54151 22.9168C8.29632 23.1108 10.1259 23.2785 12.0003 23.2785C13.8748 23.2785 15.7043 23.1108 17.4592 22.9168C20.3262 22.5996 22.6315 20.2962 22.9362 17.4239C23.1215 15.6784 23.2785 13.8614 23.2785 12.0003C23.2785 10.1392 23.1215 8.32221 22.9362 6.57676C22.6315 3.70456 20.3262 1.40105 17.4592 1.08392C15.7043 0.889811 13.8748 0.722168 12.0003 0.722168ZM12.0002 16.4737C14.4707 16.4737 16.4735 14.4709 16.4735 12.0004C16.4735 9.52979 14.4707 7.52699 12.0002 7.52699C9.52958 7.52699 7.52678 9.52979 7.52678 12.0004C7.52678 14.4709 9.52958 16.4737 12.0002 16.4737ZM19.2806 5.33894C19.2806 4.7472 18.801 4.26751 18.2092 4.26751C17.6176 4.26751 17.1378 4.7472 17.1378 5.33894V6.08954C17.1378 6.68128 17.6176 7.16097 18.2092 7.16097C18.801 7.16097 19.2806 6.68128 19.2806 6.08954V5.33894Z" fill="#66C61C"/>
</g>
<defs>
<clipPath id="clip0_42_490">
<rect width="24" height="24" fill="white"/>
</clipPath>
</defs>
</svg>
