<svg width="32" height="32" viewBox="0 0 32 32" fill="none" xmlns="http://www.w3.org/2000/svg">
<path fill-rule="evenodd" clip-rule="evenodd" d="M16.2222 9.79229C16.2222 6.55204 18.8489 3.92529 22.0892 3.92529C25.3295 3.92529 27.9562 6.55204 27.9562 9.79229C27.9562 13.0325 25.3295 15.6593 22.0892 15.6593C18.8489 15.6593 16.2222 13.0325 16.2222 9.79229ZM0.0884977 18.4414C-0.335818 16.3199 1.2869 14.3405 3.45048 14.3405H12.5028C14.1372 14.3405 15.5443 15.494 15.8648 17.0966L17.4154 24.8497C17.68 25.449 18.3332 25.8058 19.0021 25.6721C19.7758 25.5173 20.2775 24.7649 20.1228 23.9911L19.0929 18.8416C18.9705 18.2297 19.3615 17.6264 19.9817 17.557C20.3901 17.5113 20.8052 17.4878 21.2258 17.4878C26.3567 17.4878 30.6714 20.9828 31.9187 25.7221C32.2497 26.979 31.1891 28.0748 29.8892 28.0748H12.5623C12.4595 28.0748 12.3582 28.0679 12.259 28.0547H4.82191C3.18758 28.0547 1.78045 26.9011 1.45993 25.2986L0.0884977 18.4414Z" fill="#66C61C"/>
</svg>
