<svg width="24" height="24" viewBox="0 0 24 24" fill="none" xmlns="http://www.w3.org/2000/svg">
<g clip-path="url(#clip0_42_487)">
<path fill-rule="evenodd" clip-rule="evenodd" d="M6.59216 3.65691C6.59216 5.23647 5.31168 6.51696 3.73212 6.51696C2.15256 6.51696 0.87207 5.23647 0.87207 3.65691C0.87207 2.07735 2.15256 0.796875 3.73212 0.796875C5.31168 0.796875 6.59216 2.07735 6.59216 3.65691ZM3.49757 8.79147C4.9476 8.79147 6.12308 9.96694 6.12308 11.417V20.4187C6.12308 21.8688 4.9476 23.0443 3.49757 23.0443C2.04754 23.0443 0.87207 21.8688 0.87207 20.4187V11.417C0.87207 9.96694 2.04754 8.79147 3.49757 8.79147ZM14.0366 15.9178C14.0366 14.8821 14.8762 14.0425 15.9119 14.0425C16.9477 14.0425 17.7873 14.8821 17.7873 15.9178V20.4187C17.7873 21.8688 18.9628 23.0443 20.4129 23.0443C21.8628 23.0443 23.0383 21.8688 23.0383 20.4187V15.9178C23.0383 11.9821 19.8477 8.79147 15.9119 8.79147C11.9762 8.79147 8.78557 11.9821 8.78557 15.9178V20.4187C8.78557 21.8688 9.96106 23.0443 11.4111 23.0443C12.8611 23.0443 14.0366 21.8688 14.0366 20.4187V15.9178Z" fill="#66C61C"/>
</g>
<defs>
<clipPath id="clip0_42_487">
<rect width="24" height="24" fill="white"/>
</clipPath>
</defs>
</svg>
