<svg width="32" height="32" viewBox="0 0 32 32" fill="none" xmlns="http://www.w3.org/2000/svg">
<path fill-rule="evenodd" clip-rule="evenodd" d="M2.13662 11.1946C2.19158 10.7984 2.47863 10.4089 2.9984 10.0828C4.59876 9.07851 6.25856 8.03838 8.17305 7.07954C10.0876 6.12069 12.1643 5.28939 14.1695 4.48789C15.6249 3.9061 17.7114 3.90645 19.171 4.4856L19.2786 4.5283C21.266 5.31685 23.324 6.13342 25.2132 7.07954C27.1023 8.02567 28.7327 9.05641 30.3071 10.0518L30.3924 10.1057C31.5487 10.8367 31.5494 11.8817 30.3878 12.6106C28.7874 13.6149 27.1277 14.655 25.2132 15.6139C25.0459 15.6976 24.8774 15.7804 24.708 15.8622C23.0578 16.6591 21.305 17.3699 19.5935 18.0549L19.2167 18.2055C17.7613 18.7873 15.6748 18.7869 14.2152 18.2078L14.1076 18.1651C12.3686 17.4751 10.5755 16.7637 8.88891 15.9628L8.67828 15.862C8.50866 15.7803 8.3402 15.6976 8.17305 15.6139C7.22446 15.1388 6.34107 14.6423 5.49726 14.1397V22.3925C6.29913 22.9404 6.82544 23.862 6.82544 24.9063C6.82544 26.5868 5.46327 27.9488 3.78297 27.9488C2.10264 27.9488 0.740479 26.5868 0.740479 24.9063C0.740479 23.862 1.2668 22.9404 2.06869 22.3925V11.674C2.06869 11.5076 2.0924 11.3468 2.13662 11.1946ZM8.49257 18.9275C8.5152 19.5936 8.56237 20.2471 8.62068 20.8841C8.87227 23.6325 11.0987 25.8547 13.8408 26.1166C14.7601 26.2044 15.7149 26.2695 16.6931 26.2695C17.6713 26.2695 18.6261 26.2044 19.5455 26.1166C22.2875 25.8547 24.514 23.6325 24.7654 20.8841C24.8237 20.2477 24.871 19.5949 24.8936 18.9294C23.346 19.6319 21.7662 20.2634 20.2979 20.8503L20.2772 20.8585C18.1395 21.7131 15.2964 21.7107 13.1615 20.8635L13.0066 20.8021C11.5648 20.2301 10.0118 19.614 8.49257 18.9275Z" fill="#66C61C"/>
</svg>
