<svg width="24" height="24" viewBox="0 0 24 24" fill="none" xmlns="http://www.w3.org/2000/svg">
<path d="M6.74637 16.5494C5.54124 17.4907 4.158 18.1814 2.67898 18.5803C2.51608 18.6391 2.37533 18.7464 2.27585 18.8875C2.17639 19.0288 2.12302 19.197 2.12302 19.3692C2.12302 19.5415 2.17639 19.7097 2.27585 19.851C2.37533 19.992 2.51608 20.0993 2.67898 20.1581C14.3579 24.9251 21.7838 17.5566 20.6531 9.3823L22.1978 7.31128C22.5685 6.81425 22.3052 6.1002 21.7005 5.96294L19.3869 5.43773C18.9206 3.6977 17.489 2.68262 15.8867 2.39189C14.2843 2.10117 12.2025 2.39189 10.8519 4.31666C10.0723 5.49122 9.82778 7.17986 10.594 9.38215C10.594 9.38215 7.6746 10.1208 2.71274 5.27004C2.59797 5.15734 2.45311 5.07972 2.29534 5.04636C2.13758 5.01302 1.9735 5.02533 1.82256 5.08185C1.67161 5.13835 1.54011 5.23672 1.44363 5.36525C1.34715 5.49381 1.28974 5.64717 1.27819 5.80716C0.753531 7.95199 1.01609 10.2127 2.01859 12.1821C3.02109 14.1515 4.69764 15.7002 6.74637 16.5494Z" fill="#66C61C"/>
</svg>
