<svg width="24" height="24" viewBox="0 0 24 24" fill="none" xmlns="http://www.w3.org/2000/svg">
<path fill-rule="evenodd" clip-rule="evenodd" d="M5.50046 1.18232C5.4864 0.945395 5.28196 0.765163 5.04518 0.781663C4.456 0.822722 3.86258 0.868897 3.26388 0.92019C2.43929 0.990834 1.78931 1.64969 1.72814 2.47504C1.24768 8.95956 1.24768 15.0404 1.72814 21.5249C1.78931 22.3503 2.43929 23.0091 3.26388 23.0798C3.82653 23.1279 4.38449 23.1716 4.93869 23.2109C5.17409 23.2275 5.37803 23.0494 5.39417 22.814C5.89826 15.4642 5.93361 8.47989 5.50046 1.18232ZM7.53463 22.9226C7.51819 23.1627 7.70236 23.3702 7.94297 23.3803C12.2018 23.5579 16.3257 23.4578 20.7366 23.0798C21.5611 23.0091 22.2112 22.3503 22.2724 21.5249C22.7527 15.0404 22.7527 8.95956 22.2724 2.47504C22.2112 1.64969 21.5611 0.990834 20.7366 0.92019C16.3625 0.545445 12.2706 0.443836 8.04945 0.615367C7.81017 0.625091 7.62621 0.830176 7.64039 1.06924C8.07739 8.4413 8.04206 15.5012 7.53463 22.9226ZM18.2557 7.71041C18.2577 8.30213 17.7798 8.78356 17.188 8.7857L12.8611 8.80128C12.2693 8.80341 11.7879 8.32545 11.7858 7.73373C11.7836 7.14199 12.2616 6.66057 12.8533 6.65844L17.1803 6.64284C17.7721 6.64072 18.2534 7.11868 18.2557 7.71041Z" fill="#66C61C"/>
</svg>
