<svg width="24" height="24" viewBox="0 0 24 24" fill="none" xmlns="http://www.w3.org/2000/svg">
<path fill-rule="evenodd" clip-rule="evenodd" d="M9.17154 5.35717C9.17154 4.17369 10.1309 3.21431 11.3144 3.21431H12.6858C13.8693 3.21431 14.8287 4.17369 14.8287 5.35717V5.61699C13.894 5.59719 12.9571 5.59719 12.0482 5.59719H11.9517C11.0429 5.59719 10.1061 5.59719 9.17154 5.61699V5.35717ZM6.60011 5.73904V5.35717C6.60011 2.75355 8.71077 0.642883 11.3144 0.642883H12.6858C15.2894 0.642883 17.4001 2.75355 17.4001 5.35717V5.73908C18.1386 5.79918 18.8571 5.88476 19.5387 6.00659C20.9449 6.25791 22.0515 7.33232 22.3527 8.72476C22.5046 9.42733 22.5956 10.1106 22.6501 10.8258L12.7524 14.1299C12.268 14.2916 11.7441 14.2916 11.2596 14.1299L1.35011 10.8218C1.40463 10.1081 1.49555 9.42603 1.64719 8.72476C1.94829 7.33232 3.05488 6.25791 4.46111 6.00659C5.1429 5.88474 5.86139 5.79916 6.60011 5.73904ZM1.26849 14.413C1.26849 13.9335 1.26848 13.4832 1.27189 13.0548L10.5811 16.1625C11.506 16.4712 12.5061 16.4712 13.4309 16.1625L22.7279 13.0589C22.7314 13.486 22.7314 13.9351 22.7314 14.4131V14.5412C22.7314 16.8463 22.7314 18.478 22.3527 20.2296C22.0515 21.6221 20.9449 22.6965 19.5387 22.9478C17.2479 23.3572 14.5425 23.3572 12.0482 23.3572H11.9517C9.45734 23.3572 6.75203 23.3572 4.46111 22.9478C3.05488 22.6965 1.94829 21.6221 1.64719 20.2296C1.26844 18.4781 1.26847 16.8463 1.26849 14.5412V14.413Z" fill="#66C61C"/>
</svg>
