<svg width="32" height="32" viewBox="0 0 32 32" fill="none" xmlns="http://www.w3.org/2000/svg">
<path fill-rule="evenodd" clip-rule="evenodd" d="M13.5317 30.4755C13.3721 30.2993 13.245 30.1447 13.1286 30.0033C12.8674 29.686 12.6599 29.4341 12.2606 29.1463C9.84649 27.4071 6.25642 25.4583 3.52876 25.0842C2.71402 24.99 1.96213 24.5996 1.41661 23.9866C0.868393 23.3706 0.567394 22.5737 0.571452 21.7492V4.05985C0.571431 3.57736 0.675929 3.10049 0.877762 2.66222C1.0796 2.22394 1.374 1.83458 1.74069 1.52093C2.10092 1.21299 2.52279 0.985008 2.97781 0.852533C3.43285 0.720059 3.91084 0.685913 4.38007 0.752364L4.407 0.756178C8.06922 1.36399 11.4929 2.90257 14.3616 5.19921C14.4951 5.30609 14.5714 5.46846 14.5714 5.63948V30.3553C14.5714 30.7758 14.134 31.0394 13.8192 30.7605C13.7197 30.6725 13.6238 30.5774 13.5317 30.4755ZM17.4286 30.3553C17.4286 30.7758 17.8659 31.0394 18.1808 30.7605C18.2802 30.6725 18.3761 30.5774 18.4683 30.4755C18.6278 30.2993 18.755 30.1447 18.8714 30.0033C19.1326 29.686 19.3401 29.4341 19.7394 29.1463C22.1535 27.4071 25.7435 25.4583 28.4713 25.0842C29.2859 24.99 30.0379 24.5996 30.5833 23.9866C31.1316 23.3706 31.4327 22.5737 31.4286 21.7492V4.05985C31.4286 3.57736 31.3241 3.10049 31.1223 2.66222C30.9204 2.22394 30.626 1.83458 30.2592 1.52093C29.899 1.21299 29.4772 0.985008 29.0222 0.852533C28.5671 0.720059 28.0891 0.685913 27.6199 0.752364L27.5929 0.756178C23.9307 1.36399 20.5071 2.90257 17.6384 5.19921C17.5049 5.30609 17.4286 5.46846 17.4286 5.63948V30.3553Z" fill="#66C61C"/>
</svg>
