<svg width="24" height="24" viewBox="0 0 24 24" fill="none" xmlns="http://www.w3.org/2000/svg">
<path fill-rule="evenodd" clip-rule="evenodd" d="M6.67602 2.95089C8.39172 2.79494 10.1748 2.66162 11.9998 2.66162C13.8248 2.66162 15.6079 2.79494 17.3235 2.95089C20.1821 3.21071 22.562 5.45304 22.8984 8.32828C23.0372 9.51384 23.1426 10.7427 23.1426 12.0003C23.1426 13.2578 23.0372 14.4867 22.8984 15.6722C22.562 18.5474 20.1821 20.7899 17.3235 21.0496C15.6079 21.2056 13.8248 21.339 11.9998 21.339C10.1748 21.339 8.39172 21.2056 6.67602 21.0496C3.81754 20.7899 1.43761 18.5474 1.10115 15.6722C0.96242 14.4867 0.856934 13.2578 0.856934 12.0003C0.856934 10.7427 0.96242 9.51384 1.10115 8.32826C1.43761 5.45304 3.81754 3.21071 6.67602 2.95089ZM16.5144 12.0003C16.5144 13.2749 13.1741 15.2656 10.7757 16.5306C9.67052 17.1136 8.38455 16.2966 8.38455 15.0471V8.95346C8.38455 7.70397 9.67052 6.88697 10.7757 7.4699C13.1741 8.73496 16.5144 10.7256 16.5144 12.0003Z" fill="#66C61C"/>
</svg>
