<svg width="281" height="280" viewBox="0 0 281 280" fill="none" xmlns="http://www.w3.org/2000/svg">
<path d="M140.748 111.174L109.942 99.9474L121.727 67.5724L152.533 78.7724L140.748 111.174Z" fill="#FFD6AE"/>
<path d="M130.612 201.781L99.7546 190.554L104.596 177.279L135.455 188.532L130.612 201.781Z" fill="#FFD6AE"/>
<path d="M190.68 40.0666L206.482 35.4914L186.423 7L151.468 16.5774L160.699 30.1168L162.721 24.5574C164.024 20.9664 171.738 20.4876 179.933 23.4668C188.127 26.446 193.713 31.766 192.409 35.357L190.68 40.0666Z" fill="#FFD6AE"/>
<path d="M179.906 23.4668C171.713 20.461 163.998 20.9664 162.694 24.5574L159.987 32.06L189.667 42.8596L192.408 35.357C193.713 31.766 188.127 26.4194 179.906 23.4668Z" fill="#66C61C"/>
<path d="M212.307 17.1094C210.87 17.2942 209.78 18.2798 209.86 19.264C209.966 20.3014 211.19 20.944 212.66 20.7536C214.096 20.5674 215.825 18.4912 215.825 18.4912C214.816 17.692 213.591 17.2109 212.307 17.1094Z" fill="#66C61C"/>
<path d="M113.347 243.519C112.972 244.259 112.645 245.024 112.367 245.806C108.377 256.74 113.005 268.444 122.716 271.986C132.426 275.528 143.492 269.539 147.482 258.607C147.83 257.678 148.114 256.728 148.333 255.76L113.347 243.519Z" fill="#66C61C"/>
<path d="M139.471 29.5316C136.372 28.4862 132.987 28.694 130.039 30.1108C127.091 31.5277 124.815 34.041 123.695 37.114C124.561 35.0153 126.203 33.3316 128.28 32.4145C130.357 31.4975 132.708 31.4176 134.842 32.1916L153.322 38.9228L154.707 35.091L139.471 29.5316Z" fill="#66C61C"/>
<path d="M205.737 53.6606L190.519 48.1264L189.137 51.9568L203.767 57.2768C204.856 57.6685 205.856 58.2716 206.71 59.0514C207.565 59.8312 208.257 60.7723 208.747 61.8205C209.236 62.8687 209.513 64.0034 209.563 65.1591C209.612 66.3149 209.433 67.4691 209.034 68.5552L155.938 214.495C155.113 216.705 154.287 218.618 153.464 220.322C155.365 219.696 157.1 218.645 158.533 217.249C159.967 215.852 161.062 214.145 161.736 212.261L213.212 70.791C213.849 69.1757 214.159 67.4506 214.129 65.7146C214.096 63.9787 213.724 62.266 213.03 60.6747C212.335 59.0834 211.333 57.6447 210.081 56.4411C208.831 55.2376 207.354 54.2926 205.737 53.6606Z" fill="#66C61C"/>
<path d="M269.022 71.8298C269.152 72.4034 269.11 73.0027 268.9 73.5522C268.69 74.1017 268.322 74.5766 267.842 74.9168C267.362 75.257 266.792 75.4474 266.204 75.4636C265.616 75.48 265.036 75.3218 264.538 75.0088C264.041 74.6957 263.646 74.2421 263.405 73.7052C263.166 73.1683 263.09 72.5722 263.188 71.9922C263.286 71.4122 263.555 70.8744 263.958 70.4469C264.363 70.0193 264.884 69.721 265.458 69.5898C266.228 69.4148 267.036 69.5524 267.703 69.9724C268.371 70.3924 268.846 71.0603 269.022 71.8298Z" stroke="#15290A" stroke-width="1.05" stroke-linecap="round" stroke-linejoin="round"/>
<path d="M196.372 21.0994C199.75 20.6472 199.883 22.0794 203.261 21.6314C206.639 21.1834 206.506 19.7428 209.886 19.2906" stroke="#15290A" stroke-width="1.05" stroke-linecap="round" stroke-linejoin="round"/>
<path d="M160.699 30.1168L151.467 16.5774L186.422 7L206.482 35.4914L190.706 40.0666" stroke="#15290A" stroke-width="1.05" stroke-linecap="round" stroke-linejoin="round"/>
<path d="M192.409 35.357L189.696 42.833L160.007 32.032L162.721 24.5574C164.024 20.9664 171.739 20.4876 179.932 23.4668C188.125 26.446 193.712 31.766 192.409 35.357Z" stroke="#15290A" stroke-width="1.05" stroke-linecap="round" stroke-linejoin="round"/>
<path d="M192.116 43.7374L187.699 55.895L151.894 42.8862L156.336 30.702L192.116 43.7374Z" stroke="#15290A" stroke-width="1.05" stroke-linecap="round" stroke-linejoin="round"/>
<path d="M130.824 42.567C130.684 43.0335 130.683 43.531 130.822 43.9979C130.96 44.465 131.233 44.8812 131.606 45.1951C131.978 45.5089 132.435 45.7069 132.919 45.7644C133.402 45.8218 133.892 45.7364 134.328 45.5186C134.764 45.3008 135.127 44.9601 135.371 44.5386C135.616 44.1172 135.731 43.6334 135.704 43.1469C135.677 42.6604 135.507 42.1926 135.217 41.8012C134.927 41.4099 134.529 41.112 134.071 40.9444C133.425 40.7317 132.722 40.7828 132.113 41.0868C131.505 41.3907 131.042 41.9228 130.824 42.567Z" stroke="#15290A" stroke-width="1.05" stroke-linecap="round" stroke-linejoin="round"/>
<path d="M194.43 84.6244L124.759 59.2732L128.217 49.749L197.888 75.1282L194.43 84.6244Z" stroke="#15290A" stroke-width="1.05" stroke-linecap="round" stroke-linejoin="round"/>
<path d="M140.747 111.174L109.942 99.9474L121.727 67.5724L152.532 78.7724L140.747 111.174Z" stroke="#15290A" stroke-width="1.05" stroke-linecap="round" stroke-linejoin="round"/>
<path d="M179.639 125.325L148.833 114.127L160.619 81.725L191.424 92.925L179.639 125.325Z" stroke="#15290A" stroke-width="1.05" stroke-linecap="round" stroke-linejoin="round"/>
<path d="M123.083 159.722L92.251 148.523L104.063 116.122L134.868 127.322L123.083 159.722Z" stroke="#15290A" stroke-width="1.05" stroke-linecap="round" stroke-linejoin="round"/>
<path d="M161.949 173.874L131.143 162.674L142.929 130.274L173.761 141.473L161.949 173.874Z" stroke="#15290A" stroke-width="1.05" stroke-linecap="round" stroke-linejoin="round"/>
<path d="M123.935 112.743L121.807 111.972" stroke="#15290A" stroke-width="1.05" stroke-linecap="round" stroke-linejoin="round"/>
<path d="M119.918 114.446L124.094 108.966L123.802 115.856" stroke="#15290A" stroke-width="1.05" stroke-linecap="round" stroke-linejoin="round"/>
<path d="M159.076 128.678L161.337 122.506C161.337 122.506 163.701 123.249 163.253 124.501C162.796 125.776 160.5 124.823 160.5 124.823C160.5 124.823 163.804 126.015 163.066 128.043C162.233 130.325 159.076 128.678 159.076 128.678Z" stroke="#15290A" stroke-width="1.05" stroke-linecap="round" stroke-linejoin="round"/>
<path d="M142.822 173.342C143.26 173.464 143.668 173.676 144.021 173.964C144.373 174.251 144.662 174.609 144.869 175.014C145.076 175.419 145.198 175.862 145.226 176.316C145.253 176.77 145.187 177.225 145.03 177.652C143.91 180.712 140.588 179.514 140.588 179.514L142.822 173.342Z" stroke="#15290A" stroke-width="1.05" stroke-linecap="round" stroke-linejoin="round"/>
<path d="M106.962 160.812C106.587 160.391 106.108 160.075 105.573 159.893C105.039 159.712 104.467 159.673 103.912 159.779C103.358 159.886 102.84 160.133 102.411 160.499C101.981 160.866 101.653 161.336 101.46 161.867C101.267 162.397 101.214 162.968 101.308 163.524C101.401 164.081 101.638 164.605 101.994 165.042C102.35 165.48 102.813 165.819 103.339 166.023C103.865 166.229 104.435 166.295 104.994 166.214" stroke="#15290A" stroke-width="1.05" stroke-linecap="round" stroke-linejoin="round"/>
<path d="M130.612 201.781L99.7542 190.554L104.595 177.279L135.454 188.532L130.612 201.781Z" stroke="#15290A" stroke-width="1.05" stroke-linecap="round" stroke-linejoin="round"/>
<path d="M111.484 187.309L123.748 191.778" stroke="#15290A" stroke-width="1.05" stroke-linecap="round" stroke-linejoin="round"/>
<path d="M119.679 186.99L123.749 191.778L117.551 192.815" stroke="#15290A" stroke-width="1.05" stroke-linecap="round" stroke-linejoin="round"/>
<path d="M117.152 70.5782L127.792 99.309L156.709 79.3576" stroke="#15290A" stroke-width="1.05" stroke-linecap="round" stroke-linejoin="round"/>
<path d="M113.331 243.54L148.331 255.756C145.66 267.778 133.704 275.988 122.711 271.982" stroke="#15290A" stroke-width="1.05" stroke-linecap="round" stroke-linejoin="round"/>
<path d="M192.489 141.553L202.198 165.868L227.151 149.481" stroke="#15290A" stroke-width="1.05" stroke-linecap="round" stroke-linejoin="round"/>
<path d="M193.393 125.3C199.162 122.723 205.561 121.901 211.794 122.937C218.027 123.973 223.817 126.822 228.442 131.127C233.067 135.432 236.321 141.004 237.801 147.147C239.279 153.29 238.916 159.733 236.758 165.67C234.599 171.609 230.739 176.781 225.661 180.54C220.582 184.299 214.51 186.48 208.2 186.81C201.891 187.141 195.623 185.605 190.18 182.398C184.736 179.189 180.357 174.448 177.591 168.769" stroke="#15290A" stroke-width="1.05" stroke-linecap="round" stroke-linejoin="round"/>
<path d="M100.1 101.969C96.0494 102.029 92.0353 101.197 88.3421 99.5322C84.6489 97.8677 81.367 95.4111 78.729 92.3367C76.091 89.2625 74.1615 85.6454 73.0772 81.7422C71.9929 77.839 71.7804 73.7452 72.4547 69.7507C73.1289 65.7562 74.6735 61.9588 76.979 58.6278C79.2844 55.2969 82.2944 52.5137 85.7954 50.4756C89.2964 48.4376 93.2028 47.1946 97.2377 46.8345C101.273 46.4744 105.338 47.0063 109.144 48.3924C112.308 49.542 115.237 51.2547 117.79 53.4478" stroke="#15290A" stroke-width="1.05" stroke-linecap="round" stroke-linejoin="round"/>
<path d="M112.15 68.5566L83.2871 81.9644" stroke="#15290A" stroke-width="1.05" stroke-linecap="round" stroke-linejoin="round"/>
<path d="M105.526 86.9918L92.0652 57.9964" stroke="#15290A" stroke-width="1.05" stroke-linecap="round" stroke-linejoin="round"/>
<path d="M28.9125 147.379L23.5925 144.479L22.9541 138.467L18.5637 142.643L12.6319 141.393L15.2387 146.847L12.2329 152.088L18.2445 151.29L22.2877 155.785L23.4063 149.853L28.9125 147.379Z" stroke="#15290A" stroke-width="1.05" stroke-linecap="round" stroke-linejoin="round"/>
<path d="M123.696 37.1406C124.812 34.0648 127.087 31.5474 130.035 30.1257C132.982 28.7041 136.368 28.4909 139.471 29.5316L154.714 35.091" stroke="#15290A" stroke-width="1.05" stroke-linecap="round" stroke-linejoin="round"/>
<path d="M153.329 38.92L134.849 32.1888V32.2168C132.715 31.4357 130.362 31.5122 128.283 32.4297C126.205 33.3474 124.563 35.0348 123.702 37.1378C123.649 37.2428 70.4712 183.368 70.4712 183.368C65.8428 195.313 60.7874 200.553 44.7742 199.648C36.5534 199.329 28.3872 204.996 25.0874 214.04C21.0974 224.974 25.7538 236.68 35.4362 240.22L122.718 271.982C113.007 268.444 108.379 256.74 112.369 245.802C115.361 237.644 122.712 231.616 130.989 231.44C146.529 231.48 150.803 228.113 155.941 214.465L209.033 68.5566C209.829 66.3625 209.721 63.9423 208.734 61.8276C207.747 59.7129 205.959 58.0766 203.767 57.2782L189.137 51.9582" stroke="#15290A" stroke-width="1.05" stroke-linecap="round" stroke-linejoin="round"/>
<path d="M190.519 48.1264L205.766 53.6606C209.025 54.9462 211.642 57.4708 213.042 60.6816C214.443 63.8922 214.516 67.5275 213.242 70.791H213.215L161.736 212.261C161.061 214.145 159.965 215.851 158.531 217.248C157.098 218.645 155.365 219.696 153.463 220.322" stroke="#15290A" stroke-width="1.05" stroke-linecap="round" stroke-linejoin="round"/>
</svg>
