<svg width="281" height="280" viewBox="0 0 281 280" fill="none" xmlns="http://www.w3.org/2000/svg">
<path d="M122.833 227.22L122.926 227.262C123.322 226.202 123.749 225.078 124.179 223.965C123.717 225.113 123.269 226.194 122.833 227.22Z" fill="#FFD6AE"/>
<path d="M194.837 206.552C194.759 198.828 186.006 187.809 166.903 172.001C158.553 170.593 150.701 167.076 144.093 161.781C120.333 179.672 106.293 170.527 113.636 163.558C121.541 156.085 131.015 147.246 139.149 140.953C138.995 140.722 132.327 137.033 131.708 136.706C125.762 133.486 119.506 140.486 106.865 144.406C101.484 146.054 98.3952 144.56 82.536 138.69C87.1952 158.256 81.276 188.507 67.0884 204.238C68.676 204.753 73.9008 206.751 81.0534 209.609C83.8338 205.309 86.7766 201.176 88.5854 198.908C94.989 190.861 104.853 196.679 100.905 205.577C100.712 206.016 101.045 205.678 101.045 205.678C106.505 196.398 117.845 202.615 113.679 212.437C118.488 203.776 128.855 208.677 126.577 218.026C130.777 208.748 141.518 213.763 138.813 224.087C137.914 227.518 137.053 230.566 136.064 233.367L136.831 233.741C142.291 236.368 151.811 242.365 157.993 232.557C163.219 236.368 169.501 237.397 175.654 227.356C179.361 229.132 181.674 228.336 183.97 226.3C187.19 223.418 188.321 220.611 187.395 217.29C192.288 214.455 194.914 211.005 194.837 206.552Z" fill="#FFD6AE"/>
<path d="M81.0534 209.607C73.9008 206.748 68.676 204.75 67.0884 204.235C81.2746 188.504 87.1952 158.253 82.536 138.687C98.3952 144.557 101.484 146.051 106.865 144.403C119.506 140.483 125.765 133.483 131.708 136.703C132.327 137.038 138.988 140.72 139.149 140.951C131.015 147.242 121.541 156.082 113.636 163.555C106.293 170.524 120.333 179.669 144.093 161.778C150.701 167.073 158.553 170.59 166.903 171.998C186.006 187.806 194.763 198.825 194.837 206.549C194.914 211.002 192.288 214.452 187.396 217.284C188.323 220.605 187.19 223.412 183.972 226.295C181.681 228.329 179.363 229.127 175.656 227.35C169.496 237.391 163.221 236.362 157.995 232.551C151.816 242.36 142.291 236.362 136.832 233.736L136.065 233.362" stroke="#15290A" stroke-width="1.4" stroke-linecap="round" stroke-linejoin="round"/>
<path d="M77.4638 127.075C71.7994 124.733 57.7434 119.655 39.85 113.379C53.0576 131.941 39.052 188.559 14.5674 200.939C27.9304 203.951 43.5824 207.402 59.2624 210.799C82.9728 196.538 91.083 145.46 77.4638 127.075Z" stroke="#15290A" stroke-width="1.4" stroke-linecap="round" stroke-linejoin="round"/>
<path d="M39.8496 113.354C37.4556 112.504 35.0098 111.654 32.5122 110.779" stroke="#15290A" stroke-width="1.4" stroke-linecap="round" stroke-linejoin="round"/>
<path d="M7.3335 199.266C9.6505 199.807 12.0711 200.347 14.5939 200.913" stroke="#15290A" stroke-width="1.4" stroke-linecap="round" stroke-linejoin="round"/>
<path d="M175.63 227.36C171.896 225.558 166.774 221.157 158.97 212.712" stroke="#15290A" stroke-width="1.4" stroke-linecap="round" stroke-linejoin="round"/>
<path d="M169.966 198.211C180.186 206.629 186.006 212.447 187.396 217.287" stroke="#15290A" stroke-width="1.4" stroke-linecap="round" stroke-linejoin="round"/>
<path d="M148.238 222.848C150.555 225.217 153.953 229.697 157.969 232.581" stroke="#15290A" stroke-width="1.4" stroke-linecap="round" stroke-linejoin="round"/>
<path d="M41.6518 194.838C45.4136 190.386 56.0073 193.277 52.7481 197.849C49.4889 202.422 37.1242 200.2 41.6518 194.838Z" fill="#66C61C"/>
<path d="M41.6518 194.838C45.4136 190.386 56.0073 193.277 52.7481 197.849C49.4889 202.422 37.1242 200.2 41.6518 194.838Z" stroke="#15290A" stroke-width="1.4" stroke-linecap="round" stroke-linejoin="round"/>
<path d="M132.79 46.7253C118.296 46.8023 108.178 60.6791 112.76 73.8349C119.248 87.7635 119.736 88.1499 120.999 103.313H144.632C145.636 89.3329 146.384 87.6081 152.871 73.5773C157.402 60.3697 147.311 46.6203 132.79 46.7253Z" stroke="#15290A" stroke-width="1.4" stroke-linecap="round" stroke-linejoin="round"/>
<path d="M144.581 123.601H120.972V111.32H144.581V123.601Z" stroke="#15290A" stroke-width="1.4" stroke-linecap="round" stroke-linejoin="round"/>
<path d="M132.815 103.32L132.79 68.5636C132.812 67.2623 133.346 66.022 134.276 65.1114C135.206 64.2009 136.457 63.6932 137.759 63.6986L140.024 63.672C140.667 63.6564 141.306 63.7681 141.907 64.0007C142.506 64.2334 143.054 64.5822 143.518 65.0274C143.982 65.4725 144.354 66.0052 144.612 66.5945C144.869 67.1839 145.008 67.8183 145.019 68.4614C144.995 69.761 144.461 70.9987 143.531 71.9077C142.603 72.8166 141.353 73.3237 140.053 73.3194L125.533 73.3964C124.89 73.4122 124.25 73.3006 123.65 73.0682C123.051 72.8357 122.503 72.4869 122.039 72.0419C121.575 71.5968 121.203 71.0642 120.946 70.475C120.688 69.8857 120.55 69.2514 120.539 68.6084C120.561 67.3071 121.095 66.0668 122.025 65.1561C122.955 64.2454 124.206 63.7373 125.507 63.742L130.528 63.7168" stroke="#15290A" stroke-width="1.4" stroke-linecap="round" stroke-linejoin="round"/>
<path d="M132.79 33.7233V20.3099" stroke="#15290A" stroke-width="1.4" stroke-linecap="round" stroke-linejoin="round"/>
<path d="M102.616 51.128L91.0056 44.4332" stroke="#15290A" stroke-width="1.4" stroke-linecap="round" stroke-linejoin="round"/>
<path d="M102.643 85.9615L91.031 92.6549" stroke="#15290A" stroke-width="1.4" stroke-linecap="round" stroke-linejoin="round"/>
<path d="M162.963 51.128L174.574 44.4332" stroke="#15290A" stroke-width="1.4" stroke-linecap="round" stroke-linejoin="round"/>
<path d="M162.963 85.9615L174.574 92.6549" stroke="#15290A" stroke-width="1.4" stroke-linecap="round" stroke-linejoin="round"/>
<path d="M40.6724 241.951C41.5584 241.951 42.4246 242.214 43.1613 242.705C43.8981 243.198 44.4723 243.898 44.8113 244.716C45.1504 245.535 45.2392 246.436 45.0663 247.304C44.8935 248.174 44.4668 248.972 43.8403 249.599C43.2137 250.225 42.4154 250.652 41.5464 250.825C40.6774 250.998 39.7765 250.909 38.9579 250.569C38.1394 250.23 37.4396 249.656 36.9474 248.92C36.4552 248.184 36.1924 247.317 36.1924 246.431C36.1924 245.242 36.6645 244.103 37.5046 243.263C38.3447 242.423 39.4842 241.951 40.6724 241.951Z" stroke="#15290A" stroke-width="1.4" stroke-linecap="round" stroke-linejoin="round"/>
<path d="M218.65 242.246V236.004" stroke="#15290A" stroke-width="1.4" stroke-linecap="round" stroke-linejoin="round"/>
<path d="M213.05 247.846H206.808" stroke="#15290A" stroke-width="1.4" stroke-linecap="round" stroke-linejoin="round"/>
<path d="M218.65 253.446V259.69" stroke="#15290A" stroke-width="1.4" stroke-linecap="round" stroke-linejoin="round"/>
<path d="M224.25 247.846H230.493" stroke="#15290A" stroke-width="1.4" stroke-linecap="round" stroke-linejoin="round"/>
<path d="M218.65 253.446C221.743 253.446 224.25 250.939 224.25 247.846C224.25 244.754 221.743 242.246 218.65 242.246C215.558 242.246 213.05 244.754 213.05 247.846C213.05 250.939 215.558 253.446 218.65 253.446Z" stroke="#15290A" stroke-width="1.4" stroke-linecap="round" stroke-linejoin="round"/>
<path d="M125.914 219.45C129.809 209.026 118.478 203.181 113.504 212.757C111.498 216.619 108.97 221.766 107.171 225.655C102.733 235.253 116.356 240.533 120.331 232.631C122.428 228.341 124.292 223.941 125.914 219.45Z" stroke="#15290A" stroke-width="1.4" stroke-linecap="round" stroke-linejoin="round"/>
<path d="M101.047 205.675C98.8325 209.434 95.7427 214.712 94.2503 217.545C89.2103 227.205 101.897 234.613 106.608 226.272C109.285 221.484 111.705 216.257 113.301 213.065C118.322 202.845 106.633 196.176 101.047 205.675Z" stroke="#15290A" stroke-width="1.4" stroke-linecap="round" stroke-linejoin="round"/>
<path d="M88.5857 198.905C86.7657 201.197 83.7711 205.393 80.9655 209.744C75.1723 218.677 87.4055 226.17 92.6275 219.038C94.5595 216.437 98.3675 210.104 100.223 206.912C105.835 197.284 95.3057 190.46 88.5857 198.905Z" stroke="#15290A" stroke-width="1.4" stroke-linecap="round" stroke-linejoin="round"/>
<path d="M138.815 224.084C141.539 213.682 130.619 208.67 126.482 218.24C124.791 222.16 121.791 230.184 121.077 232.4C118.739 239.653 131.168 244.912 134.592 237.111C136.338 232.886 137.75 228.53 138.815 224.084Z" stroke="#15290A" stroke-width="1.4" stroke-linecap="round" stroke-linejoin="round"/>
<path d="M211.391 158.33C206.341 149.596 200.516 141.333 193.988 133.641C179.268 141.257 177.617 143.62 172.027 142.601C158.999 140.234 148.959 133.823 143.449 137.736C133.753 144.603 123.134 154.491 113.611 163.533C106.108 170.614 120.656 179.511 144.066 161.781C150.67 167.08 158.526 170.593 166.878 171.977C166.878 172.677 194.492 192.69 194.811 206.557C202.042 201.912 216.754 193.743 225.087 189.057C221.832 178.28 217.232 167.955 211.391 158.33Z" stroke="#15290A" stroke-width="1.4" stroke-linecap="round" stroke-linejoin="round"/>
<path d="M180.626 126.998C189.894 121.695 208.019 112.685 228.487 102.309" stroke="#15290A" stroke-width="1.4" stroke-linecap="round" stroke-linejoin="round"/>
<path d="M273.334 180.677C255.75 189.868 236.493 199.678 224.572 205.341" stroke="#15290A" stroke-width="1.4" stroke-linecap="round" stroke-linejoin="round"/>
<path d="M179.93 171.949C173.339 173.073 166.572 172.544 160.235 170.409" stroke="#15290A" stroke-width="1.4" stroke-linecap="round" stroke-linejoin="round"/>
<path d="M144.066 161.78L149.215 156.58" stroke="#15290A" stroke-width="1.4" stroke-linecap="round" stroke-linejoin="round"/>
<path d="M179.338 127.771C176.377 130.346 177.407 135.751 180.084 141.081C183.197 139.474 187.631 136.909 193.935 133.641C191.078 130.784 183.664 124.04 179.338 127.771Z" fill="#66C61C"/>
<path d="M179.338 127.771C176.377 130.346 177.407 135.751 180.084 141.081C183.197 139.474 187.631 136.909 193.935 133.641C191.078 130.784 183.664 124.04 179.338 127.771Z" stroke="#15290A" stroke-width="1.4" stroke-linecap="round" stroke-linejoin="round"/>
<path d="M225.087 189.045C218.702 192.611 221.947 190.784 210.412 197.305C212.622 200.337 215.963 203.846 219.398 205.26C223.26 206.882 225.989 205.646 226.658 201.398C227.25 197.644 226.091 192.546 225.087 189.045Z" fill="#66C61C"/>
<path d="M225.087 189.045C218.702 192.611 221.947 190.784 210.412 197.305C212.622 200.337 215.963 203.846 219.398 205.26C223.26 206.882 225.989 205.646 226.658 201.398C227.25 197.644 226.091 192.546 225.087 189.045Z" stroke="#15290A" stroke-width="1.4" stroke-linecap="round" stroke-linejoin="round"/>
</svg>
