<svg width="280" height="280" viewBox="0 0 280 280" fill="none" xmlns="http://www.w3.org/2000/svg">
<path d="M37.9384 214.898H54.9246" stroke="#15290A" stroke-width="0.830508" stroke-linecap="round" stroke-linejoin="round"/>
<path d="M46.4323 223.391V206.404" stroke="#15290A" stroke-width="0.830508" stroke-linecap="round" stroke-linejoin="round"/>
<path d="M18.1718 247.142H27.437" stroke="#15290A" stroke-width="0.830508" stroke-linecap="round" stroke-linejoin="round"/>
<path d="M22.8043 251.775V242.51" stroke="#15290A" stroke-width="0.830508" stroke-linecap="round" stroke-linejoin="round"/>
<path d="M244.459 237.262L256.469 249.273" stroke="#15290A" stroke-width="0.830508" stroke-linecap="round" stroke-linejoin="round"/>
<path d="M244.459 249.273L256.469 237.262" stroke="#15290A" stroke-width="0.830508" stroke-linecap="round" stroke-linejoin="round"/>
<path d="M240.421 154.42C243.207 138.537 242.118 122.216 237.248 106.844" stroke="#15290A" stroke-width="0.830508" stroke-linecap="round" stroke-linejoin="round"/>
<path d="M194.304 221.964C199.119 219.02 203.674 215.671 207.922 211.956" stroke="#15290A" stroke-width="0.830508" stroke-linecap="round" stroke-linejoin="round"/>
<path d="M141.971 37.6476C115.646 37.7873 90.4503 48.3609 71.9095 67.0496C53.3686 85.7383 42.9957 111.017 43.0652 137.342C43.1347 163.667 53.6409 188.891 72.2802 207.481C90.9194 226.072 116.17 236.513 142.496 236.513C146.003 236.513 149.508 236.331 152.996 235.964" stroke="#15290A" stroke-width="0.830508" stroke-linecap="round" stroke-linejoin="round"/>
<path d="M208.18 62.4402C197.44 52.9708 184.779 45.9368 171.066 41.821" stroke="#15290A" stroke-width="0.830508" stroke-linecap="round" stroke-linejoin="round"/>
<path d="M219.362 264.239L199.229 249.561C197.846 252.517 195.887 255.165 193.469 257.356L213.653 272.07C214.692 272.828 215.988 273.141 217.258 272.941C218.528 272.742 219.666 272.048 220.424 271.009C221.181 269.97 221.495 268.674 221.296 267.404C221.096 266.134 220.401 264.996 219.362 264.239Z" stroke="#15290A" stroke-width="0.830508" stroke-linecap="round" stroke-linejoin="round"/>
<path d="M157.453 224.911C154.617 228.805 152.997 233.453 152.801 238.266C152.605 243.079 153.841 247.843 156.351 251.954C158.863 256.066 162.537 259.34 166.907 261.363C171.28 263.388 176.153 264.069 180.913 263.323C185.672 262.577 190.104 260.438 193.646 257.173C197.189 253.908 199.686 249.668 200.818 244.985C201.951 240.303 201.669 235.389 200.01 230.867C198.351 226.344 195.388 222.415 191.496 219.576C188.91 217.69 185.978 216.332 182.869 215.58C179.758 214.827 176.531 214.696 173.368 215.191C170.207 215.687 167.175 216.8 164.443 218.467C161.713 220.136 159.338 222.326 157.453 224.911ZM193.013 250.834C190.726 253.973 187.557 256.362 183.91 257.702C180.263 259.041 176.303 259.267 172.527 258.355C168.751 257.442 165.33 255.43 162.698 252.573C160.066 249.717 158.339 246.144 157.737 242.305C157.137 238.468 157.687 234.538 159.318 231.013C160.95 227.487 163.591 224.525 166.907 222.501C170.223 220.478 174.064 219.481 177.945 219.64C181.826 219.799 185.574 221.105 188.712 223.394C192.921 226.463 195.739 231.077 196.545 236.223C197.352 241.368 196.082 246.624 193.013 250.834Z" stroke="#15290A" stroke-width="0.830508" stroke-linecap="round" stroke-linejoin="round"/>
<path d="M222.182 31.1569V38.1345H254.849V92.8423H261.826V31.1569H222.182Z" fill="#FFD6AE"/>
<path d="M254.849 92.8423H261.826V31.1569H222.182V38.1345" stroke="#15290A" stroke-width="0.830508" stroke-linecap="round" stroke-linejoin="round"/>
<path d="M215.207 38.1344V45.1554H247.827V99.8198H254.849V38.1344H215.207Z" fill="#FFD6AE"/>
<path d="M247.827 99.8198H254.849V38.1344H215.207V45.1554" stroke="#15290A" stroke-width="0.830508" stroke-linecap="round" stroke-linejoin="round"/>
<path d="M247.826 45.1569H208.184V106.842H247.826V45.1569Z" stroke="#15290A" stroke-width="0.830508" stroke-linecap="round" stroke-linejoin="round"/>
<path d="M219.562 59.4577H236.628" stroke="#15290A" stroke-width="0.830508" stroke-linecap="round" stroke-linejoin="round"/>
<path d="M219.562 67.0223H236.628" stroke="#15290A" stroke-width="0.830508" stroke-linecap="round" stroke-linejoin="round"/>
<path d="M219.562 74.1325H236.628" stroke="#15290A" stroke-width="0.830508" stroke-linecap="round" stroke-linejoin="round"/>
<path d="M219.562 81.0668H236.628" stroke="#15290A" stroke-width="0.830508" stroke-linecap="round" stroke-linejoin="round"/>
<path d="M98.5066 29.9003L78.3466 26.9701L69.339 8.70701C69.0851 8.19605 68.6938 7.76607 68.2089 7.46549C67.7239 7.1649 67.1648 7.00565 66.5943 7.00565C66.0238 7.00565 65.4646 7.1649 64.9796 7.46549C64.4947 7.76607 64.1034 8.19605 63.8496 8.70701L54.8364 26.9673L34.6764 29.8961C34.112 29.9795 33.5821 30.2188 33.1463 30.587C32.7105 30.9553 32.3862 31.4379 32.2098 31.9804C32.0336 32.523 32.0122 33.104 32.1481 33.6581C32.284 34.2123 32.572 34.7174 32.9796 35.1167L47.569 49.3323L44.1264 69.4068C44.0328 69.9688 44.0978 70.5458 44.3141 71.0729C44.5303 71.6001 44.8891 72.0565 45.3504 72.3909C45.8117 72.7254 46.357 72.9246 46.9252 72.9662C47.4935 73.0079 48.062 72.8903 48.5672 72.6269L66.5936 63.1489L84.6242 72.6269C85.1293 72.8903 85.6978 73.0079 86.2661 72.9662C86.8343 72.9246 87.3796 72.7254 87.8409 72.3909C88.3021 72.0565 88.6611 71.6001 88.8772 71.0729C89.0935 70.5458 89.1585 69.9688 89.065 69.4068L85.6224 49.3323L100.203 35.1209C100.611 34.7216 100.899 34.2165 101.035 33.6623C101.171 33.1082 101.149 32.5272 100.973 31.9846C100.797 31.4421 100.472 30.9595 100.037 30.5912C99.6008 30.223 99.0709 29.9836 98.5066 29.9003Z" fill="#66C61C"/>
<path d="M98.5066 29.9003L78.3466 26.9701L69.339 8.70701C69.0851 8.19605 68.6938 7.76607 68.2089 7.46549C67.7239 7.1649 67.1648 7.00565 66.5943 7.00565C66.0238 7.00565 65.4646 7.1649 64.9796 7.46549C64.4947 7.76607 64.1034 8.19605 63.8496 8.70701L54.8364 26.9673L34.6764 29.8961C34.112 29.9795 33.5821 30.2188 33.1463 30.587C32.7105 30.9553 32.3862 31.4379 32.2098 31.9804C32.0336 32.523 32.0122 33.104 32.1481 33.6581C32.284 34.2123 32.572 34.7174 32.9796 35.1167L47.569 49.3323L44.1264 69.4068C44.0328 69.9688 44.0978 70.5458 44.3141 71.0729C44.5303 71.6001 44.8891 72.0565 45.3504 72.3909C45.8117 72.7254 46.357 72.9246 46.9252 72.9662C47.4935 73.0079 48.062 72.8903 48.5672 72.6269L66.5936 63.1489L84.6242 72.6269C85.1293 72.8903 85.6978 73.0079 86.2661 72.9662C86.8343 72.9246 87.3796 72.7254 87.8409 72.3909C88.3021 72.0565 88.6611 71.6001 88.8772 71.0729C89.0935 70.5458 89.1585 69.9688 89.065 69.4068L85.6224 49.3323L100.203 35.1209C100.611 34.7216 100.899 34.2165 101.035 33.6623C101.171 33.1082 101.149 32.5272 100.973 31.9846C100.797 31.4421 100.472 30.9595 100.037 30.5912C99.6008 30.223 99.0709 29.9836 98.5066 29.9003Z" stroke="#15290A" stroke-width="0.830508" stroke-linecap="round" stroke-linejoin="round"/>
<path d="M197.259 109.301C182.593 92.8465 175.457 89.2261 171.079 77.2575V39.8999C171.043 36.0433 169.486 32.3567 166.748 29.6416C164.008 26.9264 160.308 25.4022 156.451 25.4004C152.595 25.3984 148.893 26.9191 146.151 29.6316C143.41 32.3443 141.849 36.0293 141.809 39.8859V85.3999C134.903 86.5199 136.264 86.2399 84.6895 86.2399C80.8073 86.2438 76.9966 87.2858 73.6526 89.258C70.3087 91.2303 67.5529 94.0611 65.6713 97.4568C63.7896 100.853 62.8503 104.69 62.9508 108.571C63.0513 112.452 64.1882 116.235 66.2431 119.529C64.2265 122.73 63.0847 126.404 62.9316 130.184C62.7786 133.965 63.6196 137.719 65.3709 141.072C63.6676 144.285 62.8241 147.883 62.9221 151.518C63.0203 155.152 64.0568 158.7 65.9309 161.816C64.0813 164.739 63.0497 168.105 62.9434 171.563C62.8373 175.021 63.6605 178.444 65.3273 181.475C66.994 184.506 69.4433 187.034 72.42 188.797C75.3965 190.56 78.7914 191.492 82.2507 191.496H130.971C136.634 191.496 141.331 188.072 142.311 183.56C144.99 183.905 147.646 184.428 150.257 185.123C157.468 186.96 165.457 187.274 172.394 184.582C177.532 187.176 187.074 194.485 195.84 201.842L233.857 148.375C215.244 130.963 208.519 121.932 197.259 109.301Z" stroke="#15290A" stroke-width="0.830508" stroke-linecap="round" stroke-linejoin="round"/>
<path d="M66.243 119.529C68.1935 122.66 70.9092 125.242 74.1343 127.032C77.3592 128.822 80.987 129.761 84.6754 129.76H130.962C137.332 129.76 142.494 125.179 142.494 119.53C142.494 113.881 137.332 109.301 130.962 109.301H87.9192" stroke="#15290A" stroke-width="0.830508" stroke-linecap="round" stroke-linejoin="round"/>
<path d="M65.9292 161.816C69.5552 168.788 76.2724 172.157 84.6752 172.157H130.963C137.332 172.157 142.494 167.828 142.494 162.49C142.494 157.151 137.332 152.821 130.962 152.821" stroke="#15290A" stroke-width="0.830508" stroke-linecap="round" stroke-linejoin="round"/>
<path d="M142.299 183.554C143.646 177.321 137.819 172.157 130.959 172.157" stroke="#15290A" stroke-width="0.830508" stroke-linecap="round" stroke-linejoin="round"/>
<path d="M65.3706 141.072C67.2045 144.61 69.9746 147.578 73.379 149.649C76.7834 151.721 80.6914 152.818 84.6766 152.821H130.962C134.02 152.821 136.953 151.606 139.115 149.444C141.277 147.281 142.492 144.348 142.492 141.291C142.492 138.233 141.277 135.3 139.115 133.138C136.953 130.975 134.02 129.76 130.962 129.76" stroke="#15290A" stroke-width="0.830508" stroke-linecap="round" stroke-linejoin="round"/>
<path d="M172.382 184.576C178.379 182.255 185.225 177.225 187.064 171.093" stroke="#15290A" stroke-width="0.830508" stroke-linecap="round" stroke-linejoin="round"/>
<path d="M142.495 156.076C145.178 151.341 148.977 147.333 153.564 144.402C147.631 140.815 142.71 135.776 139.264 129.76" stroke="#15290A" stroke-width="0.830508" stroke-linecap="round" stroke-linejoin="round"/>
<path d="M233.845 148.369L195.828 201.837C203.108 207.942 208.967 212.955 213.8 216.633L252.181 164.833C244.95 158.553 238.95 153.145 233.845 148.369ZM235.005 174.422C233.635 174.422 232.297 174.016 231.157 173.254C230.019 172.494 229.132 171.413 228.608 170.148C228.083 168.882 227.946 167.49 228.213 166.146C228.481 164.804 229.14 163.569 230.109 162.602C231.076 161.633 232.311 160.973 233.654 160.706C234.998 160.439 236.389 160.576 237.655 161.101C238.92 161.624 240.001 162.512 240.761 163.65C241.523 164.79 241.929 166.128 241.929 167.497C241.929 168.407 241.75 169.308 241.403 170.148C241.054 170.988 240.544 171.751 239.9 172.393C239.258 173.037 238.495 173.547 237.655 173.895C236.815 174.243 235.915 174.422 235.005 174.422Z" fill="#66C61C"/>
<path d="M233.845 148.369L195.828 201.837C203.108 207.942 208.967 212.955 213.8 216.633L252.181 164.833C244.95 158.553 238.95 153.145 233.845 148.369Z" stroke="#15290A" stroke-width="0.830508" stroke-linecap="round" stroke-linejoin="round"/>
<path d="M235.005 174.422C238.829 174.422 241.929 171.321 241.929 167.497C241.929 163.673 238.829 160.573 235.005 160.573C231.18 160.573 228.08 163.673 228.08 167.497C228.08 171.321 231.18 174.422 235.005 174.422Z" stroke="#15290A" stroke-width="0.830508" stroke-linecap="round" stroke-linejoin="round"/>
<path d="M230.372 167.497H239.637" stroke="#15290A" stroke-width="0.830508" stroke-linecap="round" stroke-linejoin="round"/>
<path d="M235.004 172.13V162.865" stroke="#15290A" stroke-width="0.830508" stroke-linecap="round" stroke-linejoin="round"/>
</svg>
