<svg width="280" height="280" viewBox="0 0 280 280" fill="none" xmlns="http://www.w3.org/2000/svg">
<path d="M217.281 203.84H229.437C230.593 203.841 231.739 203.615 232.807 203.172C233.876 202.73 234.847 202.082 235.664 201.264C236.483 200.445 237.131 199.475 237.574 198.407C238.015 197.337 238.243 196.192 238.242 195.035V70.8667C238.243 69.7102 238.015 68.5649 237.574 67.4962C237.131 66.4276 236.483 65.4566 235.664 64.6388C234.847 63.8211 233.876 63.1726 232.807 62.7305C231.739 62.2882 230.593 62.0612 229.437 62.0621H56.7176C55.561 62.0612 54.4157 62.2882 53.3471 62.7305C52.2784 63.1726 51.3075 63.8211 50.4897 64.6388C49.6719 65.4566 49.0234 66.4276 48.5813 67.4962C48.1392 68.5649 47.912 69.7102 47.913 70.8667V195.035C47.912 196.192 48.1392 197.337 48.5813 198.407C49.0234 199.475 49.6719 200.445 50.4897 201.264C51.3075 202.082 52.2784 202.73 53.3471 203.172C54.4157 203.615 55.561 203.841 56.7176 203.84H69.9112" stroke="#15290A" stroke-width="1.4" stroke-linecap="round" stroke-linejoin="round"/>
<path d="M60.6012 77.9423C62.3934 77.9423 63.8464 76.4894 63.8464 74.6971C63.8464 72.9048 62.3934 71.4519 60.6012 71.4519C58.8089 71.4519 57.356 72.9048 57.356 74.6971C57.356 76.4894 58.8089 77.9423 60.6012 77.9423Z" fill="#66C61C"/>
<path d="M60.6012 77.9423C62.3934 77.9423 63.8464 76.4894 63.8464 74.6971C63.8464 72.9048 62.3934 71.4519 60.6012 71.4519C58.8089 71.4519 57.356 72.9048 57.356 74.6971C57.356 76.4894 58.8089 77.9423 60.6012 77.9423Z" stroke="#15290A" stroke-width="1.4" stroke-linecap="round" stroke-linejoin="round"/>
<path d="M238.261 87.2788H47.913" stroke="#15290A" stroke-width="1.4" stroke-linecap="round" stroke-linejoin="round"/>
<path d="M70.4432 77.9423C72.2355 77.9423 73.6884 76.4894 73.6884 74.6971C73.6884 72.9048 72.2355 71.4519 70.4432 71.4519C68.6509 71.4519 67.198 72.9048 67.198 74.6971C67.198 76.4894 68.6509 77.9423 70.4432 77.9423Z" stroke="#15290A" stroke-width="1.4" stroke-linecap="round" stroke-linejoin="round"/>
<path d="M80.3121 77.9423C82.1044 77.9423 83.5573 76.4894 83.5573 74.6971C83.5573 72.9048 82.1044 71.4519 80.3121 71.4519C78.5198 71.4519 77.0669 72.9048 77.0669 74.6971C77.0669 76.4894 78.5198 77.9423 80.3121 77.9423Z" stroke="#15290A" stroke-width="1.4" stroke-linecap="round" stroke-linejoin="round"/>
<path d="M135.899 112.017H217.274V215.597H69.911V112.017H94.8408" stroke="#15290A" stroke-width="1.4" stroke-linecap="round" stroke-linejoin="round"/>
<path d="M115.371 174.128C134.395 174.128 149.818 158.705 149.818 139.681C149.818 120.656 134.395 105.234 115.371 105.234C96.3461 105.234 80.9237 120.656 80.9237 139.681C80.9237 158.705 96.3461 174.128 115.371 174.128Z" stroke="#15290A" stroke-width="1.4" stroke-linecap="round" stroke-linejoin="round"/>
<path d="M203.308 126.381H163.169V141.197H203.308V126.381Z" stroke="#15290A" stroke-width="1.4" stroke-linecap="round" stroke-linejoin="round"/>
<path d="M203.308 153.433H163.169V198.866H203.308V153.433Z" stroke="#15290A" stroke-width="1.4" stroke-linecap="round" stroke-linejoin="round"/>
<path d="M100.847 133.483V148.246C98.9067 148.219 97.0552 147.43 95.6927 146.048C94.3301 144.668 93.5663 142.804 93.5663 140.864C93.5663 138.924 94.3301 137.062 95.6927 135.681C97.0552 134.299 98.9067 133.51 100.847 133.483Z" fill="#66C61C"/>
<path d="M100.847 133.483V148.246C98.9067 148.219 97.0552 147.43 95.6927 146.048C94.3301 144.668 93.5663 142.804 93.5663 140.864C93.5663 138.924 94.3301 137.062 95.6927 135.681C97.0552 134.299 98.9067 133.51 100.847 133.483Z" stroke="#15290A" stroke-width="1.4" stroke-linecap="round" stroke-linejoin="round"/>
<path d="M137.315 141.037C137.314 142.99 136.537 144.864 135.155 146.244C133.774 147.624 131.9 148.4 129.947 148.4V133.643C131.903 133.653 133.775 134.436 135.155 135.822C136.535 137.207 137.312 139.082 137.315 141.037Z" fill="#66C61C"/>
<path d="M137.315 141.037C137.314 142.99 136.537 144.864 135.155 146.244C133.774 147.624 131.9 148.4 129.947 148.4V133.643C131.903 133.653 133.775 134.436 135.155 135.822C136.535 137.207 137.312 139.082 137.315 141.037Z" stroke="#15290A" stroke-width="1.4" stroke-linecap="round" stroke-linejoin="round"/>
<path d="M120.85 160.243C122.495 160.243 123.829 158.908 123.829 157.263C123.829 155.618 122.495 154.284 120.85 154.284C119.204 154.284 117.871 155.618 117.871 157.263C117.871 158.908 119.204 160.243 120.85 160.243Z" fill="#66C61C"/>
<path d="M120.85 160.243C122.495 160.243 123.829 158.908 123.829 157.263C123.829 155.618 122.495 154.284 120.85 154.284C119.204 154.284 117.871 155.618 117.871 157.263C117.871 158.908 119.204 160.243 120.85 160.243Z" stroke="#15290A" stroke-width="1.4" stroke-linecap="round" stroke-linejoin="round"/>
<path d="M89.7812 181.257L92.6274 187.055L99.038 187.986L94.4096 192.508L95.5002 198.892L89.7812 195.86L84.0622 198.892L85.1528 192.508L80.5244 187.986L86.9084 187.055L89.7812 181.257Z" fill="#FFD6AE"/>
<path d="M89.7812 181.257L92.6274 187.055L99.038 187.986L94.4096 192.508L95.5002 198.892L89.7812 195.86L84.0622 198.892L85.1528 192.508L80.5244 187.986L86.9084 187.055L89.7812 181.257Z" stroke="#15290A" stroke-width="1.4" stroke-linecap="round" stroke-linejoin="round"/>
<path d="M115.211 181.257L118.084 187.055L124.468 187.986L119.839 192.508L120.93 198.892L115.211 195.86L109.492 198.892L110.582 192.508L105.954 187.986L112.365 187.055L115.211 181.257Z" fill="#FFD6AE"/>
<path d="M115.211 181.257L118.084 187.055L124.468 187.986L119.839 192.508L120.93 198.892L115.211 195.86L109.492 198.892L110.582 192.508L105.954 187.986L112.365 187.055L115.211 181.257Z" stroke="#15290A" stroke-width="1.4" stroke-linecap="round" stroke-linejoin="round"/>
<path d="M140.667 181.257L143.54 187.055L149.924 187.986L145.296 192.508L146.386 198.892L140.667 195.86L134.948 198.892L136.039 192.508L131.411 187.986L137.821 187.055L140.667 181.257Z" fill="#FFD6AE"/>
<path d="M140.667 181.257L143.54 187.055L149.924 187.986L145.296 192.508L146.386 198.892L140.667 195.86L134.948 198.892L136.039 192.508L131.411 187.986L137.821 187.055L140.667 181.257Z" stroke="#15290A" stroke-width="1.4" stroke-linecap="round" stroke-linejoin="round"/>
<path d="M129.921 133.669C129.921 129.81 128.388 126.109 125.659 123.381C122.93 120.652 119.229 119.119 115.371 119.119C111.512 119.119 107.811 120.652 105.082 123.381C102.353 126.109 100.82 129.81 100.82 133.669" stroke="#15290A" stroke-width="1.4" stroke-linecap="round" stroke-linejoin="round"/>
<path d="M123.829 157.263C126.425 157.261 128.913 156.227 130.748 154.393C132.583 152.558 133.615 150.07 133.618 147.475" stroke="#15290A" stroke-width="1.4" stroke-linecap="round" stroke-linejoin="round"/>
<path d="M89.9407 102.068H30.3567C28.8356 102.072 27.3779 102.679 26.3024 103.754C25.2268 104.83 24.6207 106.287 24.6167 107.808V125.16L19.9883 136.172L30.3623 130.906H89.9463C91.4674 130.902 92.9251 130.295 94.0005 129.22C95.0762 128.144 95.6822 126.687 95.6863 125.166V107.814C95.687 107.059 95.5389 106.312 95.2505 105.614C94.9619 104.917 94.5387 104.283 94.005 103.75C93.4715 103.216 92.8377 102.793 92.1404 102.504C91.4429 102.216 90.6954 102.068 89.9407 102.068ZM43.6567 120.05C42.8991 120.05 42.1585 119.825 41.5287 119.404C40.8987 118.984 40.4078 118.385 40.1179 117.685C39.828 116.986 39.7521 116.215 39.8999 115.472C40.0476 114.729 40.4125 114.047 40.9482 113.511C41.4839 112.975 42.1664 112.611 42.9094 112.463C43.6525 112.315 44.4226 112.391 45.1225 112.681C45.8225 112.971 46.4207 113.462 46.8415 114.092C47.2624 114.721 47.4871 115.462 47.4871 116.22C47.4871 117.235 47.0836 118.21 46.3653 118.928C45.6469 119.647 44.6725 120.05 43.6567 120.05ZM60.2817 120.023C59.5239 120.023 58.783 119.799 58.1528 119.377C57.5228 118.956 57.0319 118.358 56.7422 117.657C56.4525 116.957 56.3771 116.186 56.5255 115.443C56.6737 114.7 57.0393 114.017 57.5756 113.482C58.1121 112.947 58.7953 112.582 59.5387 112.435C60.2822 112.288 61.0525 112.365 61.7524 112.656C62.4521 112.947 63.0499 113.439 63.4699 114.07C63.89 114.701 64.1135 115.442 64.1121 116.2C64.1103 117.215 63.7058 118.187 62.9877 118.904C62.2695 119.621 61.2964 120.023 60.2817 120.023ZM76.9067 119.997C76.1491 119.997 75.4085 119.772 74.7787 119.351C74.1487 118.93 73.6578 118.332 73.3679 117.632C73.078 116.932 73.0021 116.162 73.1499 115.419C73.2976 114.676 73.6625 113.994 74.1982 113.458C74.7339 112.922 75.4164 112.558 76.1594 112.41C76.9025 112.262 77.6726 112.338 78.3725 112.628C79.0725 112.918 79.6707 113.408 80.0915 114.038C80.5124 114.668 80.7371 115.409 80.7371 116.166C80.7371 116.669 80.638 117.168 80.4455 117.632C80.253 118.097 79.9709 118.519 79.6153 118.875C79.2595 119.231 78.8373 119.513 78.3725 119.705C77.9078 119.898 77.4097 119.997 76.9067 119.997Z" fill="#FFD6AE"/>
<path d="M89.9407 102.068H30.3567C28.8356 102.072 27.3779 102.679 26.3024 103.754C25.2268 104.83 24.6207 106.287 24.6167 107.808V125.16L19.9883 136.172L30.3623 130.906H89.9463C91.4674 130.902 92.9251 130.295 94.0005 129.22C95.0762 128.144 95.6822 126.687 95.6863 125.166V107.814C95.687 107.059 95.5389 106.312 95.2505 105.614C94.9619 104.917 94.5387 104.283 94.005 103.75C93.4715 103.216 92.8377 102.793 92.1404 102.504C91.4429 102.216 90.6954 102.068 89.9407 102.068Z" stroke="#15290A" stroke-width="1.4" stroke-linecap="round" stroke-linejoin="round"/>
<path d="M43.6567 120.05C45.7722 120.05 47.4871 118.335 47.4871 116.22C47.4871 114.104 45.7722 112.389 43.6567 112.389C41.5413 112.389 39.8263 114.104 39.8263 116.22C39.8263 118.335 41.5413 120.05 43.6567 120.05Z" stroke="#15290A" stroke-width="1.4" stroke-linecap="round" stroke-linejoin="round"/>
<path d="M60.2817 120.023C62.3972 120.023 64.1121 118.309 64.1121 116.193C64.1121 114.078 62.3972 112.363 60.2817 112.363C58.1663 112.363 56.4513 114.078 56.4513 116.193C56.4513 118.309 58.1663 120.023 60.2817 120.023Z" stroke="#15290A" stroke-width="1.4" stroke-linecap="round" stroke-linejoin="round"/>
<path d="M76.9067 119.997C79.0222 119.997 80.7371 118.282 80.7371 116.166C80.7371 114.051 79.0222 112.336 76.9067 112.336C74.7913 112.336 73.0763 114.051 73.0763 116.166C73.0763 118.282 74.7913 119.997 76.9067 119.997Z" stroke="#15290A" stroke-width="1.4" stroke-linecap="round" stroke-linejoin="round"/>
<path d="M16.4446 142.713C-7.30917 184.901 15.3806 233.233 66.16 223.71" stroke="#15290A" stroke-width="1.4" stroke-linecap="round" stroke-linejoin="round"/>
<path d="M58.2329 233.233L66.1597 223.657L56.5837 215.863" stroke="#15290A" stroke-width="1.4" stroke-linecap="round" stroke-linejoin="round"/>
<path d="M115.211 39.665C117.326 39.665 119.041 37.9501 119.041 35.8346C119.041 33.7192 117.326 32.0042 115.211 32.0042C113.095 32.0042 111.38 33.7192 111.38 35.8346C111.38 37.9501 113.095 39.665 115.211 39.665Z" stroke="#15290A" stroke-width="1.4" stroke-linecap="round" stroke-linejoin="round"/>
<path d="M264.435 103.824L264.409 120.928" stroke="#15290A" stroke-width="1.4" stroke-linecap="round" stroke-linejoin="round"/>
<path d="M273.001 112.389L255.87 112.363" stroke="#15290A" stroke-width="1.4" stroke-linecap="round" stroke-linejoin="round"/>
<path d="M179.369 245.363C177.593 244.489 176.167 243.041 175.32 241.255C174.473 239.467 174.254 237.447 174.701 235.521C175.148 233.593 176.234 231.875 177.781 230.643C179.329 229.412 181.247 228.74 183.226 228.738" stroke="#15290A" stroke-width="1.4" stroke-linecap="round" stroke-linejoin="round"/>
<path d="M187.189 229.695C188.924 230.57 190.317 231.997 191.152 233.75C191.987 235.504 192.215 237.485 191.801 239.383C191.386 241.28 190.353 242.987 188.863 244.233C187.374 245.479 185.512 246.194 183.571 246.267" stroke="#15290A" stroke-width="1.4" stroke-linecap="round" stroke-linejoin="round"/>
<path d="M181.443 227.088L183.252 228.764L181.576 230.546" stroke="#15290A" stroke-width="1.4" stroke-linecap="round" stroke-linejoin="round"/>
<path d="M185.327 247.996L183.571 246.267L185.274 244.538" stroke="#15290A" stroke-width="1.4" stroke-linecap="round" stroke-linejoin="round"/>
</svg>
