<svg width="113" height="48" viewBox="0 0 113 48" fill="none" xmlns="http://www.w3.org/2000/svg">
<rect width="48" height="48" rx="24" fill="#15290A"/>
<path d="M11.7153 17.4407C10.8407 17.4814 10.2 17.6288 9.79322 17.8831C9.39661 18.1271 9.1983 18.4983 9.1983 18.9966C9.1983 19.2915 9.24915 19.6271 9.35085 20.0034C9.45254 20.3695 9.50339 20.7508 9.50339 21.1475C9.50339 21.7881 9.31525 22.3271 8.93898 22.7644C8.56271 23.1915 7.98813 23.522 7.21525 23.7559V24H4.5V22.6576C5.28305 22.5966 5.85254 22.4288 6.20847 22.1542C6.57458 21.8695 6.75763 21.4729 6.75763 20.9644C6.75763 20.6695 6.70678 20.339 6.60508 19.9729C6.50339 19.6068 6.45254 19.2305 6.45254 18.8441C6.45254 17.6034 6.89491 16.6576 7.77966 16.0068C8.67457 15.3559 9.98644 15.0203 11.7153 15V17.4407ZM11.7153 30.5593V33C9.98644 32.9695 8.67457 32.6288 7.77966 31.978C6.89491 31.3373 6.45254 30.3966 6.45254 29.1559C6.45254 28.7695 6.50339 28.3932 6.60508 28.0271C6.70678 27.661 6.75763 27.3305 6.75763 27.0356C6.75763 26.5169 6.57458 26.1203 6.20847 25.8458C5.85254 25.5712 5.28305 25.4034 4.5 25.3424V24H7.21525V24.2441C7.98813 24.4678 8.56271 24.7983 8.93898 25.2356C9.31525 25.6627 9.50339 26.2017 9.50339 26.8525C9.50339 27.239 9.45254 27.6203 9.35085 27.9966C9.24915 28.3729 9.1983 28.7085 9.1983 29.0034C9.1983 29.5017 9.39661 29.8729 9.79322 30.1169C10.2 30.361 10.8407 30.5085 11.7153 30.5593Z" fill="#66C61C"/>
<path d="M22.8712 26.5474C22.8712 27.2491 22.6881 27.8694 22.322 28.4084C21.9559 28.9372 21.4424 29.3542 20.7814 29.6593C20.1305 29.9542 19.3678 30.1016 18.4932 30.1016C17.5373 30.1016 16.7186 29.9389 16.0373 29.6135C15.3559 29.2881 14.8271 28.8152 14.4508 28.1949C14.0746 27.5644 13.8661 26.8067 13.8254 25.922H16.4797C16.6017 26.461 16.8203 26.8677 17.1356 27.1423C17.461 27.4067 17.8983 27.5389 18.4475 27.5389C18.7627 27.5389 19.0373 27.483 19.2712 27.3711C19.5051 27.2593 19.6831 27.1016 19.8051 26.8983C19.9373 26.6949 20.0034 26.461 20.0034 26.1966C20.0034 25.7491 19.8814 25.4084 19.6373 25.1745C19.3932 24.9406 19.0322 24.8237 18.5542 24.8237H17.2424V22.3983H18.6153C19.1034 22.3983 19.4746 22.2915 19.7288 22.0779C19.9831 21.8542 20.1102 21.5338 20.1102 21.1169C20.1102 20.7508 19.9627 20.4508 19.6678 20.2169C19.3831 19.9728 19.0068 19.8508 18.539 19.8508C17.9695 19.8508 17.5119 19.9983 17.1661 20.2932C16.8203 20.5779 16.5763 21.0203 16.4339 21.6203H13.7797C13.8102 20.6949 14.0186 19.9118 14.4051 19.2711C14.7915 18.6203 15.3356 18.1271 16.0373 17.7915C16.7492 17.4559 17.5983 17.2881 18.5847 17.2881C19.4492 17.2881 20.2068 17.4355 20.8576 17.7305C21.5186 18.0254 22.0271 18.4372 22.3831 18.9661C22.7492 19.4949 22.9322 20.1101 22.9322 20.8118C22.9322 21.3915 22.7746 21.905 22.4593 22.3525C22.1542 22.7898 21.7271 23.105 21.178 23.2983V23.6644C21.7169 23.8779 22.1339 24.2389 22.4288 24.7474C22.7237 25.2457 22.8712 25.8457 22.8712 26.5474Z" fill="white"/>
<path d="M29.0369 30.1016C27.4301 30.1016 26.2047 29.5576 25.3606 28.4694C24.5267 27.3813 24.1098 25.7898 24.1098 23.6949C24.1098 21.6 24.5267 20.0084 25.3606 18.9203C26.2047 17.8322 27.4301 17.2881 29.0369 17.2881C30.6437 17.2881 31.864 17.8322 32.6979 18.9203C33.542 20.0084 33.964 21.6 33.964 23.6949C33.964 25.7898 33.542 27.3813 32.6979 28.4694C31.864 29.5576 30.6437 30.1016 29.0369 30.1016ZM29.0369 27.4932C29.7284 27.4932 30.242 27.183 30.5776 26.5627C30.9233 25.9322 31.0962 24.9762 31.0962 23.6949C31.0962 22.4135 30.9233 21.4627 30.5776 20.8423C30.242 20.2118 29.7284 19.8966 29.0369 19.8966C28.3454 19.8966 27.8267 20.2118 27.4809 20.8423C27.1454 21.4627 26.9776 22.4135 26.9776 23.6949C26.9776 24.9762 27.1454 25.9322 27.4809 26.5627C27.8267 27.183 28.3454 27.4932 29.0369 27.4932ZM26.1081 24.6559L32.4996 19.8355V22.7338L26.1081 27.5542V24.6559Z" fill="white"/>
<path d="M35.8017 17.4407V15C37.5305 15.0203 38.8373 15.3559 39.722 16.0068C40.6169 16.6576 41.0644 17.6034 41.0644 18.8441C41.0644 19.2305 41.0136 19.6068 40.9119 19.9729C40.8102 20.339 40.7593 20.6695 40.7593 20.9644C40.7593 21.4729 40.9373 21.8695 41.2932 22.1542C41.6593 22.4288 42.2339 22.5966 43.0169 22.6576V24H40.3017V23.7559C39.5288 23.522 38.9542 23.1915 38.578 22.7644C38.2017 22.3271 38.0136 21.7881 38.0136 21.1475C38.0136 20.7508 38.0644 20.3695 38.1661 20.0034C38.2678 19.6271 38.3186 19.2915 38.3186 18.9966C38.3186 18.4983 38.1153 18.1271 37.7085 17.8831C37.3119 17.6288 36.6763 17.4814 35.8017 17.4407ZM35.8017 30.5593C36.6763 30.5085 37.3119 30.361 37.7085 30.1169C38.1153 29.8729 38.3186 29.5017 38.3186 29.0034C38.3186 28.7085 38.2678 28.3729 38.1661 27.9966C38.0644 27.6203 38.0136 27.239 38.0136 26.8525C38.0136 26.2017 38.2017 25.6627 38.578 25.2356C38.9542 24.7983 39.5288 24.4678 40.3017 24.2441V24H43.0169V25.3424C42.2339 25.4034 41.6593 25.5712 41.2932 25.8458C40.9373 26.1203 40.7593 26.5169 40.7593 27.0356C40.7593 27.3305 40.8102 27.661 40.9119 28.0271C41.0136 28.3932 41.0644 28.7695 41.0644 29.1559C41.0644 30.3966 40.6169 31.3373 39.722 31.978C38.8373 32.6288 37.5305 32.9695 35.8017 33V30.5593Z" fill="#66C61C"/>
<path d="M56.84 19.2V8H60.522C62.1087 8 63.322 8.48067 64.162 9.442C65.002 10.4033 65.422 11.7893 65.422 13.6C65.422 15.4107 65.002 16.7967 64.162 17.758C63.322 18.7193 62.1087 19.2 60.522 19.2H56.84ZM59.472 16.75H60.522C61.278 16.75 61.8427 16.4933 62.216 15.98C62.5987 15.4573 62.79 14.664 62.79 13.6C62.79 12.536 62.5987 11.7473 62.216 11.234C61.8427 10.7113 61.278 10.45 60.522 10.45H59.472V16.75Z" fill="#15290A"/>
<path d="M71.8507 13.698V15.49L69.9467 15.784C69.6947 15.8213 69.4894 15.9147 69.3307 16.064C69.1721 16.204 69.0927 16.386 69.0927 16.61C69.0927 16.8527 69.1674 17.044 69.3167 17.184C69.4754 17.3147 69.7087 17.38 70.0167 17.38C70.3434 17.38 70.6327 17.3147 70.8847 17.184C71.1367 17.0533 71.3374 16.8807 71.4867 16.666C71.6361 16.442 71.7107 16.1947 71.7107 15.924V13.74C71.7107 13.2827 71.5987 12.942 71.3747 12.718C71.1507 12.494 70.8007 12.382 70.3247 12.382C70.0074 12.382 69.7274 12.4333 69.4847 12.536C69.2514 12.6387 69.0601 12.788 68.9107 12.984C68.7614 13.18 68.6634 13.418 68.6167 13.698H66.1947C66.2601 12.9793 66.4701 12.3633 66.8247 11.85C67.1794 11.3273 67.6554 10.9307 68.2527 10.66C68.8501 10.38 69.5407 10.24 70.3247 10.24C71.5754 10.24 72.5274 10.5247 73.1807 11.094C73.8341 11.654 74.1607 12.4707 74.1607 13.544V19.2H71.7107V18.318H71.1507C71.0014 18.6727 70.7727 18.9433 70.4647 19.13C70.1661 19.3167 69.7694 19.41 69.2747 19.41C68.7427 19.41 68.2714 19.3027 67.8607 19.088C67.4594 18.8733 67.1421 18.5747 66.9087 18.192C66.6847 17.8093 66.5727 17.3707 66.5727 16.876C66.5727 16.1013 66.8107 15.476 67.2867 15C67.7721 14.524 68.4627 14.216 69.3587 14.076L71.8507 13.698Z" fill="#15290A"/>
<path d="M75.5495 10.52H78.0975L79.9875 16.652H81.3035L80.8275 18.5H78.0975L75.5495 10.52ZM84.4115 10.52L81.9615 19.97C81.7468 20.7353 81.3968 21.3093 80.9115 21.692C80.4355 22.084 79.8241 22.28 79.0775 22.28C78.2095 22.28 77.5328 22.042 77.0475 21.566C76.5621 21.0993 76.2681 20.404 76.1655 19.48H78.3635C78.4475 19.732 78.5455 19.914 78.6575 20.026C78.7695 20.138 78.9141 20.194 79.0915 20.194C79.2595 20.194 79.3948 20.1287 79.4975 19.998C79.6095 19.8673 79.7075 19.6667 79.7915 19.396L82.0595 10.52H84.4115Z" fill="#15290A"/>
<path d="M88.1382 16.484C88.2595 16.764 88.4462 16.9833 88.6982 17.142C88.9502 17.2913 89.2675 17.366 89.6502 17.366C90.0795 17.366 90.4015 17.31 90.6162 17.198C90.8402 17.0767 90.9522 16.9087 90.9522 16.694C90.9522 16.4887 90.8775 16.3347 90.7282 16.232C90.5882 16.1293 90.3595 16.064 90.0422 16.036L88.6982 15.896C87.7182 15.7933 86.9809 15.5227 86.4862 15.084C86.0009 14.636 85.7582 14.006 85.7582 13.194C85.7582 12.2793 86.0895 11.5607 86.7522 11.038C87.4242 10.506 88.3529 10.24 89.5382 10.24C90.8075 10.24 91.7782 10.506 92.4502 11.038C93.1222 11.5607 93.4862 12.3493 93.5422 13.404H91.1902C91.0969 13.0587 90.9102 12.7973 90.6302 12.62C90.3595 12.4427 89.9955 12.354 89.5382 12.354C89.0902 12.354 88.7495 12.4147 88.5162 12.536C88.2829 12.6573 88.1662 12.83 88.1662 13.054C88.1662 13.25 88.2362 13.3993 88.3762 13.502C88.5255 13.6047 88.7589 13.6747 89.0762 13.712L90.4062 13.838C91.4049 13.9407 92.1422 14.2113 92.6182 14.65C93.1035 15.0887 93.3462 15.714 93.3462 16.526C93.3462 17.142 93.2015 17.674 92.9122 18.122C92.6229 18.5607 92.2029 18.8967 91.6522 19.13C91.1015 19.3633 90.4342 19.48 89.6502 19.48C88.4462 19.48 87.5175 19.228 86.8642 18.724C86.2109 18.22 85.8422 17.4733 85.7582 16.484H88.1382Z" fill="#15290A"/>
<path d="M61.082 37.48C59.654 37.48 58.5667 36.9807 57.82 35.982C57.0733 34.9833 56.7 33.5227 56.7 31.6C56.7 29.6773 57.0827 28.2167 57.848 27.218C58.6227 26.2193 59.738 25.72 61.194 25.72C62.034 25.72 62.7573 25.8927 63.364 26.238C63.9707 26.5833 64.4467 27.0827 64.792 27.736C65.1373 28.3893 65.338 29.178 65.394 30.102H62.986C62.8553 29.43 62.6407 28.9307 62.342 28.604C62.0527 28.2773 61.67 28.114 61.194 28.114C60.578 28.114 60.1113 28.4033 59.794 28.982C59.486 29.5513 59.332 30.424 59.332 31.6C59.332 32.776 59.4767 33.6533 59.766 34.232C60.0553 34.8013 60.494 35.086 61.082 35.086C61.5207 35.086 61.88 34.9367 62.16 34.638C62.44 34.33 62.65 33.8633 62.79 33.238H65.198C65.142 34.134 64.9367 34.8993 64.582 35.534C64.2367 36.1593 63.7653 36.64 63.168 36.976C62.58 37.312 61.8847 37.48 61.082 37.48Z" fill="#15290A"/>
<path d="M70.4227 37.48C69.5641 37.48 68.8174 37.2933 68.1827 36.92C67.5481 36.5467 67.0581 36.0147 66.7127 35.324C66.3674 34.624 66.1947 33.8027 66.1947 32.86C66.1947 31.908 66.3674 31.0867 66.7127 30.396C67.0581 29.7053 67.5481 29.1733 68.1827 28.8C68.8174 28.4267 69.5641 28.24 70.4227 28.24C71.2907 28.24 72.0374 28.4267 72.6627 28.8C73.2974 29.1733 73.7874 29.7053 74.1327 30.396C74.4781 31.0867 74.6507 31.908 74.6507 32.86C74.6507 33.8027 74.4781 34.624 74.1327 35.324C73.7874 36.0147 73.2974 36.5467 72.6627 36.92C72.0374 37.2933 71.2907 37.48 70.4227 37.48ZM70.4227 35.268C71.0014 35.268 71.4447 35.058 71.7527 34.638C72.0701 34.2087 72.2287 33.616 72.2287 32.86C72.2287 32.104 72.0701 31.516 71.7527 31.096C71.4447 30.6667 71.0014 30.452 70.4227 30.452C69.8534 30.452 69.4101 30.6667 69.0927 31.096C68.7754 31.516 68.6167 32.104 68.6167 32.86C68.6167 33.616 68.7754 34.2087 69.0927 34.638C69.4101 35.058 69.8534 35.268 70.4227 35.268Z" fill="#15290A"/>
<path d="M78.8955 37.424C78.1955 37.424 77.5888 37.2373 77.0755 36.864C76.5621 36.4907 76.1655 35.9633 75.8855 35.282C75.6055 34.6007 75.4655 33.7933 75.4655 32.86C75.4655 31.9267 75.6055 31.1193 75.8855 30.438C76.1655 29.7473 76.5621 29.22 77.0755 28.856C77.5888 28.4827 78.1955 28.296 78.8955 28.296C79.2968 28.296 79.6655 28.3893 80.0015 28.576C80.3375 28.7627 80.5848 29.0193 80.7435 29.346H81.3035V25.328H83.8235V37.2H81.3035V36.374H80.7435C80.5848 36.6913 80.3375 36.948 80.0015 37.144C79.6748 37.3307 79.3061 37.424 78.8955 37.424ZM79.6795 35.212C80.2488 35.212 80.6921 35.0067 81.0095 34.596C81.3268 34.176 81.4855 33.5973 81.4855 32.86C81.4855 32.1133 81.3268 31.5347 81.0095 31.124C80.6921 30.7133 80.2488 30.508 79.6795 30.508C79.1101 30.508 78.6668 30.7133 78.3495 31.124C78.0415 31.5347 77.8875 32.1133 77.8875 32.86C77.8875 33.6067 78.0415 34.1853 78.3495 34.596C78.6668 35.0067 79.1101 35.212 79.6795 35.212Z" fill="#15290A"/>
<path d="M86.2062 28.52H91.2462V34.988H93.7662V37.2H86.2062V34.988H88.7262V30.732H86.2062V28.52ZM89.8742 27.512C89.3609 27.512 88.9642 27.3953 88.6842 27.162C88.4135 26.9287 88.2782 26.5973 88.2782 26.168C88.2782 25.7387 88.4135 25.4073 88.6842 25.174C88.9642 24.9407 89.3609 24.824 89.8742 24.824C90.3875 24.824 90.7795 24.9407 91.0502 25.174C91.3302 25.4073 91.4702 25.7387 91.4702 26.168C91.4702 26.5973 91.3302 26.9287 91.0502 27.162C90.7795 27.3953 90.3875 27.512 89.8742 27.512Z" fill="#15290A"/>
<path d="M95.2109 37.2V28.52H97.7309V29.36H98.2909C98.4683 29.0053 98.7249 28.73 99.0609 28.534C99.3969 28.338 99.7936 28.24 100.251 28.24C100.811 28.24 101.287 28.3753 101.679 28.646C102.071 28.9167 102.37 29.3133 102.575 29.836C102.78 30.3587 102.883 30.9933 102.883 31.74V37.2H100.363V32.342C100.363 31.754 100.251 31.3153 100.027 31.026C99.8123 30.7273 99.4856 30.578 99.0469 30.578C98.6083 30.578 98.2769 30.7273 98.0529 31.026C97.8383 31.3153 97.7309 31.754 97.7309 32.342V37.2H95.2109Z" fill="#15290A"/>
<path d="M112.476 36.78C112.476 37.4987 112.298 38.1193 111.944 38.642C111.598 39.1647 111.104 39.566 110.46 39.846C109.825 40.1353 109.074 40.28 108.206 40.28C107.478 40.28 106.829 40.168 106.26 39.944C105.69 39.72 105.228 39.4027 104.874 38.992C104.519 38.5813 104.3 38.0913 104.216 37.522H106.708C106.857 37.7273 107.062 37.886 107.324 37.998C107.585 38.1193 107.879 38.18 108.206 38.18C108.756 38.18 109.186 38.054 109.494 37.802C109.802 37.5593 109.956 37.2187 109.956 36.78V35.87H109.396C109.237 36.1593 108.99 36.388 108.654 36.556C108.318 36.724 107.94 36.808 107.52 36.808C106.838 36.808 106.25 36.64 105.756 36.304C105.27 35.9587 104.892 35.478 104.622 34.862C104.351 34.2367 104.216 33.4993 104.216 32.65C104.216 31.754 104.351 30.984 104.622 30.34C104.892 29.6867 105.27 29.1827 105.756 28.828C106.25 28.4733 106.838 28.296 107.52 28.296C107.949 28.296 108.332 28.3893 108.668 28.576C109.013 28.7627 109.256 29.0193 109.396 29.346H109.956V28.52H112.476V36.78ZM106.624 32.608C106.624 33.2707 106.778 33.7887 107.086 34.162C107.394 34.526 107.818 34.708 108.36 34.708C108.901 34.708 109.321 34.526 109.62 34.162C109.928 33.7887 110.082 33.2707 110.082 32.608C110.082 31.936 109.928 31.418 109.62 31.054C109.321 30.69 108.901 30.508 108.36 30.508C107.818 30.508 107.394 30.69 107.086 31.054C106.778 31.418 106.624 31.936 106.624 32.608Z" fill="#15290A"/>
</svg>
